<svg xmlns="http://www.w3.org/2000/svg" xmlns:xlink="http://www.w3.org/1999/xlink" width="172" height="28" viewBox="0 0 172 28"><defs><clipPath id="a"><rect width="172" height="28" fill="none"/></clipPath><linearGradient id="b" x1="1" y1="1.216" x2="0.22" y2="0.5" gradientUnits="objectBoundingBox"><stop offset="0" stop-color="#a57d4c"/><stop offset="1" stop-color="#e0c797"/></linearGradient></defs><g clip-path="url(#a)"><g transform="translate(-68.893 -74)"><g transform="translate(68.893 74)"><rect width="28" height="28" rx="5" fill="url(#b)"/><path d="M9.337,0l2.8,6.067,6.536.836-4.8,4.586,1.238,6.584L9.337,14.839,3.567,18.072,4.8,11.489,0,6.9l6.536-.836Z" transform="translate(5 5)" fill="#fff"/></g></g><g transform="translate(-33.893 -74)"><g transform="translate(68.893 74)"><rect width="28" height="28" rx="5" fill="url(#b)"/><path d="M9.337,0l2.8,6.067,6.536.836-4.8,4.586,1.238,6.584L9.337,14.839,3.567,18.072,4.8,11.489,0,6.9l6.536-.836Z" transform="translate(5 5)" fill="#fff"/></g></g><g transform="translate(1.107 -74)"><g transform="translate(68.893 74)"><rect width="28" height="28" rx="5" fill="url(#b)"/><path d="M9.337,0l2.8,6.067,6.536.836-4.8,4.586,1.238,6.584L9.337,14.839,3.567,18.072,4.8,11.489,0,6.9l6.536-.836Z" transform="translate(5 5)" fill="#fff"/></g></g><g transform="translate(36.107 -74)"><g transform="translate(68.893 74)"><rect width="28" height="28" rx="5" fill="url(#b)"/><path d="M9.337,0l2.8,6.067,6.536.836-4.8,4.586,1.238,6.584L9.337,14.839,3.567,18.072,4.8,11.489,0,6.9l6.536-.836Z" transform="translate(5 5)" fill="#fff"/></g></g><g transform="translate(71.107 -74)"><g transform="translate(68.893 74)"><rect width="28" height="28" rx="5" fill="url(#b)"/><path d="M9.337,0l2.8,6.067,6.536.836-4.8,4.586,1.238,6.584L9.337,14.839,3.567,18.072,4.8,11.489,0,6.9l6.536-.836Z" transform="translate(5 5)" fill="#fff"/></g></g></g></svg>