<?xml version="1.0" encoding="utf-8"?>
<!-- Generator: Adobe Illustrator 26.0.1, SVG Export Plug-In . SVG Version: 6.00 Build 0)  -->
<svg version="1.1" id="Layer_1" xmlns="http://www.w3.org/2000/svg" xmlns:xlink="http://www.w3.org/1999/xlink" x="0px" y="0px"
	 width="105px" height="70px" viewBox="0 0 105 70" style="enable-background:new 0 0 105 70;" xml:space="preserve">
<style type="text/css">
	.st0{fill:#A57D4C;}
</style>
<g transform="translate(-208 -136)">
	<path class="st0" d="M246.9,167.5l-11.8-10.8c-0.4-0.4-0.4-1-0.1-1.4c0.2-0.2,0.4-0.3,0.6-0.3l13-2l-2-14.2
		c-0.1-0.5,0.3-1.1,0.8-1.1c0.3,0,0.6,0.1,0.9,0.3l12.3,12.3l12.3-12.3c0.4-0.4,1-0.4,1.4,0c0.2,0.2,0.3,0.4,0.3,0.7v13.9l9.6-1.9
		c0.5-0.1,1.1,0.2,1.2,0.8c0.1,0.3,0,0.6-0.2,0.8l-8.6,11.1l-1.6-1.2l7-9l-8.2,1.6c-0.5,0.1-1.1-0.2-1.2-0.8c0-0.1,0-0.1,0-0.2V141
		l-11.3,11.3c-0.4,0.4-1,0.4-1.4,0L249,141.4l1.7,12.2c0.1,0.5-0.3,1-0.8,1.1l-11.9,1.8l10.3,9.4L246.9,167.5z"/>
	<path class="st0" d="M232.5,195.8h-23.8v-2h23.8V195.8z"/>
	<path class="st0" d="M262.7,195.8h-13v-2h12v-9.6l-1.9-5.8c-2.3-0.7-12.3-3.6-25.4-6.3c-0.2,0-0.4-0.2-0.6-0.3
		c-2.8-3.2-6.2-5.9-10.1-7.8c-3.2-1.6-6.6-2.7-8.6-2.7h-6.5v-2h6.5c2.3,0,6,1.1,9.5,2.9c4,2,7.5,4.7,10.5,8
		c14.8,3.1,25.6,6.4,25.7,6.4c0.3,0.1,0.6,0.3,0.7,0.6l2.2,6.5c0,0.1,0.1,0.2,0.1,0.3v10.8C263.7,195.4,263.3,195.8,262.7,195.8
		C262.7,195.8,262.7,195.8,262.7,195.8z"/>
	<path class="st0" d="M226,176.4h-17.3v-2h17.1l4.1-2.1l0.9,1.8l-4.3,2.2C226.3,176.3,226.1,176.4,226,176.4z"/>
	<path class="st0" d="M241.1,204.5c-5.3,0-9.6-4.3-9.6-9.7c0-5.3,4.3-9.6,9.7-9.6c5.3,0,9.6,4.3,9.6,9.6
		C250.7,200.2,246.4,204.5,241.1,204.5z M241.1,187.2c-4.2,0-7.6,3.4-7.6,7.7c0,4.2,3.4,7.6,7.7,7.6c4.2,0,7.6-3.4,7.6-7.6
		C248.7,190.6,245.3,187.2,241.1,187.2L241.1,187.2z"/>
	<path class="st0" d="M285.3,171.5l-1.8-0.8l2.8-6.3c1-3,3.9-5.1,7.1-5.1h19.1v2h-19.1c-2.4,0-4.5,1.5-5.2,3.8l0,0L285.3,171.5z"/>
	<path class="st0" d="M312.6,189.5h-13.5v-2h13.5V189.5z"/>
	<path class="st0" d="M288.7,204.5H280c-1.7,0-3.2-1.4-3.2-3.2v-7.7c-1.4-1.4-2.2-3.3-2.2-5.2v-3.4c0-2.1,0.8-4.1,2.2-5.6v-1
		l-3.5-1.1c-1.7-0.1-3-1.5-3-3.2V171c0-1.7,1.4-3.2,3.2-3.2h6.5c0.6,0,1,0.4,2.4,1.6c2,1.7,5.7,4.9,8.4,4.9h21.6v2h-21.6
		c-3.4,0-7.3-3.4-9.7-5.4c-0.5-0.4-1.1-0.9-1.3-1.1h-6.3c-0.6,0-1.2,0.5-1.2,1.2v2.9c0,0.6,0.5,1.2,1.2,1.2h0.2l5.2,1.7v3.3
		l-0.3,0.3c-1.2,1.2-1.9,2.8-1.9,4.5v3.4c0,1.6,0.7,3,1.8,4.1l0.3,0.3v8.6c0,0.6,0.5,1.2,1.2,1.2h8.7c0.6,0,1.2-0.5,1.2-1.2v-7.5
		h22.6v2h-20.6v5.5C291.8,203.1,290.4,204.5,288.7,204.5z"/>
	<path class="st0" d="M292.2,185c-3.2,0-5.8-0.1-8.5-2.4l1.3-1.5c2.3,1.9,4.4,1.9,7.6,1.9h2.6v2L292.2,185L292.2,185z"/>
	<path class="st0" d="M290.7,196.3H278v-2h12.7V196.3z"/>
</g>
</svg>
