<svg height="96.995" viewBox="0 0 47.137 96.995" width="47.137" xmlns="http://www.w3.org/2000/svg"><g fill="#ad743f"><path d="m6.992 78.428a12.053 12.053 0 0 0 11.657 4.192 15.132 15.132 0 0 1 7.26-.409c-1.738-4.908-6.646-7.873-6.646-7.873-7.771-4.294-16.462.716-16.462.716s1.43.307 4.191 3.374z" transform="translate(.063 1.632)"/><path d="m33.5 62.017a12.246 12.246 0 0 1 -1.534 12.27 16.264 16.264 0 0 0 -3.681 6.237c-3.579-3.783-3.885-9.509-3.885-9.509-.307-8.9 8.18-14.315 8.18-14.315s-.613 1.534.92 5.317z" transform="translate(.548 1.275)"/><path d="m3.17 63a11.283 11.283 0 0 0 9.611 6.442 15.121 15.121 0 0 1 6.646 1.227c-.511-4.806-4.294-8.691-4.294-8.691-6.033-5.521-15.133-2.965-15.133-2.965s1.431.613 3.17 3.987z" transform="translate(0 1.314)"/><path d="m2.638 46.8a10.828 10.828 0 0 0 6.748 8.487 13.486 13.486 0 0 1 5.624 2.965c.92-4.4-1.431-8.9-1.431-8.9-3.886-6.745-12.679-7.052-12.679-7.052s1.125.92 1.738 4.5z" transform="translate(.02 .951)"/><path d="m27.6 49.606a10.723 10.723 0 0 1 -2.965 10.429 13.375 13.375 0 0 0 -3.988 4.908c-2.556-3.579-2.147-8.691-2.147-8.691.92-7.771 8.9-11.452 8.9-11.452s-.617 1.329.2 4.806z" transform="translate(.415 1.007)"/><path d="m27.058 36.2a10.027 10.027 0 0 1 -5.93 8.589 13.45 13.45 0 0 0 -5.317 3.272c-1.329-4.192.613-8.691.613-8.691 3.17-6.748 11.963-7.566 11.963-7.566s-1.023.916-1.329 4.396z" transform="translate(.345 .715)"/><path d="m4.511 30.694a9.833 9.833 0 0 0 4.09 9.1 13.849 13.849 0 0 1 4.4 4.09c1.943-3.476.92-7.975.92-7.975-1.946-6.748-9.921-9.509-9.921-9.509s.716 1.125.511 4.294z" transform="translate(.09 .594)"/><path d="m12.012 19.588a9.022 9.022 0 0 0 1.534 8.9 11.927 11.927 0 0 1 2.863 4.5c2.454-2.761 2.454-6.953 2.454-6.953-.1-6.442-6.442-10.429-6.442-10.429s.511 1.221-.409 3.982z" transform="translate(.258 .351)"/><path d="m21.547 9.274a9.051 9.051 0 0 0 -1.738 8.487 12.779 12.779 0 0 1 .92 5.01c3.067-1.636 4.6-5.419 4.6-5.419 2.148-5.828-1.839-11.452-1.839-11.452a8.551 8.551 0 0 1 -1.943 3.374z" transform="translate(.436 .133)"/><path d="m32.265 24.276a9.753 9.753 0 0 1 -7.055 5.93 11.834 11.834 0 0 0 -5.01 1.636c.2-3.681 2.965-6.953 2.965-6.953 4.4-4.908 11.35-3.988 11.35-3.988s-1.023.614-2.25 3.375z" transform="translate(.454 .468)"/><path d="m29.239 2.863a7.512 7.512 0 0 0 -1.431 7.157 9.835 9.835 0 0 1 .818 4.192 10.605 10.605 0 0 0 3.885-4.5c1.739-4.906-1.738-9.712-1.738-9.712s0 1.022-1.534 2.863z" transform="translate(.617)"/><path d="m39.547 15.774a7.381 7.381 0 0 1 -6.953 2.045 10.445 10.445 0 0 0 -4.294-.409 9.821 9.821 0 0 1 4.192-4.192c4.806-2.249 9.816.818 9.816.818s-1.022.102-2.761 1.738z" transform="translate(.636 .279)"/><path d="m44.229 6.163a7.293 7.293 0 0 1 -6.237 3.681 10.629 10.629 0 0 0 -4.192.613 10.539 10.539 0 0 1 2.965-5.112c3.988-3.272 9.611-1.636 9.611-1.636a7.36 7.36 0 0 0 -2.147 2.454z" transform="translate(.76 .074)"/><path d="m17.257 88.781a35 35 0 0 1 15.849 3.783 19.249 19.249 0 0 0 -6.544-6.135c-7.975-3.783-16.462 1.738-16.462 1.738s1.636.1 4.6 3.067a12.221 12.221 0 0 0 11.861 3.476 12.1 12.1 0 0 1 4.806-.92c-5.725-4.498-14.11-5.009-14.11-5.009z" transform="translate(.227 1.914)"/><path d="m38.414 91.688a13.012 13.012 0 0 1 2.658-4.5 12.285 12.285 0 0 0 .818-12.372c-1.738-3.783-1.329-5.317-1.329-5.317s-8.078 6.033-7.26 14.826a19.35 19.35 0 0 0 2.863 7.464c-.511-6.033 1.943-15.542 1.943-15.542-1.125 7.977-.407 12.782.307 15.441z" transform="translate(.748 1.563)"/></g></svg>