<svg id="ilawyer" xmlns="http://www.w3.org/2000/svg" width="163.343" height="15" viewBox="0 0 163.343 15">
  <g id="Group_154" data-name="Group 154" transform="translate(40.901)">
    <path id="Path_2624" data-name="Path 2624" d="M98.71,8.466a.794.794,0,0,1,.9-.876h.713v8.515h-.713a.792.792,0,0,1-.9-.876Z" transform="translate(-98.706 -4.282)" fill="#fff"/>
    <path id="Path_2625" data-name="Path 2625" d="M109.847,10.42a1.151,1.151,0,0,0,.762.275v.776a.637.637,0,0,1-.5.7,1.043,1.043,0,0,1-.808-.1,2.429,2.429,0,0,1-1.024-.95A3.234,3.234,0,0,1,107.85,9.4V1.456a.794.794,0,0,1,.9-.876h.713V9.418A1.291,1.291,0,0,0,109.847,10.42Z" transform="translate(-104.058 -0.327)" fill="#fff"/>
    <path id="Path_2626" data-name="Path 2626" d="M123.617,7.952a3.2,3.2,0,0,1,1.189,2.554v5.26h-.477a.969.969,0,0,1-.9-.7,3.372,3.372,0,0,1-2.478.95,3.8,3.8,0,0,1-2.669-1,3.157,3.157,0,0,1-1.189-2.528V10.506a3.317,3.317,0,0,1,1.189-2.554,3.949,3.949,0,0,1,2.669-1A4.042,4.042,0,0,1,123.617,7.952Zm-2.689.7a2.494,2.494,0,0,0-1.666.6,1.562,1.562,0,0,0-.6,1.251v1.978a1.723,1.723,0,0,0,.6,1.251,2.515,2.515,0,0,0,1.666.575,2.612,2.612,0,0,0,1.666-.575,1.562,1.562,0,0,0,.6-1.251V10.506a1.723,1.723,0,0,0-.6-1.251A2.449,2.449,0,0,0,120.927,8.654Z" transform="translate(-109.469 -3.921)" fill="#fff"/>
    <path id="Path_2627" data-name="Path 2627" d="M150.1,8.466a.788.788,0,0,1,.883-.876h.713v5.26a3.558,3.558,0,0,1-.858,2.554,3.124,3.124,0,0,1-2.383.95,2.981,2.981,0,0,1-2.428-1.1,3.337,3.337,0,0,1-4.811.153,3.645,3.645,0,0,1-.858-2.554V8.492a.794.794,0,0,1,.9-.876h.713v5.26a2.094,2.094,0,0,0,.406,1.4,1.611,1.611,0,0,0,1.214.427,1.492,1.492,0,0,0,1.169-.449,1.9,1.9,0,0,0,.452-1.377V8.523a.794.794,0,0,1,.9-.876h.721v5.26a2.1,2.1,0,0,0,.452,1.377,1.56,1.56,0,0,0,1.169.449,1.6,1.6,0,0,0,1.214-.427,2.03,2.03,0,0,0,.406-1.4l.021-4.436Z" transform="translate(-123.096 -4.282)" fill="#fff"/>
    <path id="Path_2628" data-name="Path 2628" d="M178.3,7.58l-3.141,9.365c-.07.227-.166.427-.236.628a2.749,2.749,0,0,1-.261.549,2.531,2.531,0,0,1-.9.85,1.246,1.246,0,0,1-.833.1.641.641,0,0,1-.477-.7v-.776a1.388,1.388,0,0,0,.547-.126.646.646,0,0,0,.406-.427l.311-.85a1.275,1.275,0,0,1-.978-.828l-2.383-7.012a.678.678,0,0,1,0-.527.445.445,0,0,1,.452-.227h1l2.383,7.038h.025l2.167-6.411a.817.817,0,0,1,.833-.628l1.09-.017Z" transform="translate(-140.631 -4.277)" fill="#fff"/>
    <path id="Path_2629" data-name="Path 2629" d="M197.674,7.4a3.174,3.174,0,0,1,1,.876,2.545,2.545,0,0,1,.452,1.477A2.449,2.449,0,0,1,198.863,11a2.419,2.419,0,0,1-.692.8,2.565,2.565,0,0,1-.978.475,3.441,3.441,0,0,1-1.048.148h-1.952a1.008,1.008,0,0,1-.311-.026.5.5,0,0,1-.261-.126v.7a1.057,1.057,0,0,0,.572.95,2.032,2.032,0,0,0,1.094.327,3.181,3.181,0,0,0,1.169-.074,1.967,1.967,0,0,0,.762-.349c.07-.048.12-.126.215-.2a.691.691,0,0,1,.953-.148l.787.4a3.13,3.13,0,0,1-1.977,1.826,4.535,4.535,0,0,1-1.571.275,5.582,5.582,0,0,1-1.239-.126,3.39,3.39,0,0,1-1.169-.527,2.539,2.539,0,0,1-.9-1.129,3.583,3.583,0,0,1-.286-1.451V9.995a3.278,3.278,0,0,1,.261-1.251,2.86,2.86,0,0,1,1.359-1.377,4.19,4.19,0,0,1,1.881-.427A4.63,4.63,0,0,1,197.674,7.4Zm-.6,3.155a.887.887,0,0,0,.452-.7.849.849,0,0,0-.311-.776,2.263,2.263,0,0,0-1.189-.427,4.8,4.8,0,0,0-1.239.1,1.916,1.916,0,0,0-.808.4,1.049,1.049,0,0,0-.356.8v.8h2.669A1.34,1.34,0,0,0,197.077,10.553Z" transform="translate(-153.354 -3.916)" fill="#fff"/>
    <path id="Path_2630" data-name="Path 2630" d="M212.89,10.561a2.875,2.875,0,0,1,.928-2.305,2.662,2.662,0,0,1,1.832-.675H216.7v.75c0,.628-.261.95-.833.95h-.215a1.2,1.2,0,0,0-.762.275,1.27,1.27,0,0,0-.381,1v5.535h-.713a.792.792,0,0,1-.9-.876V10.561Z" transform="translate(-165.57 -4.277)" fill="#fff"/>
    <path id="Path_2631" data-name="Path 2631" d="M234.344,9.154a1.611,1.611,0,0,0-1.214-.427,1.5,1.5,0,0,0-1.189.475,1.975,1.975,0,0,0-.452,1.377v5.26h-.713a.792.792,0,0,1-.9-.876V10.606a1.975,1.975,0,0,0-.452-1.377,1.5,1.5,0,0,0-1.189-.475,1.656,1.656,0,0,0-1.239.427,2.165,2.165,0,0,0-.406,1.4v5.26h-.713a.792.792,0,0,1-.9-.876V10.61a3.645,3.645,0,0,1,.858-2.554,3.03,3.03,0,0,1,2.383-.976,3.129,3.129,0,0,1,2.118.776,3.6,3.6,0,0,1,.311.327l.311-.327a2.986,2.986,0,0,1,2.142-.776,3.036,3.036,0,0,1,2.383.976,3.689,3.689,0,0,1,.858,2.554v5.26h-.713a.792.792,0,0,1-.9-.876V10.636A1.9,1.9,0,0,0,234.344,9.154Z" transform="translate(-172.644 -3.995)" fill="#fff"/>
    <path id="Path_2632" data-name="Path 2632" d="M263.017,7.952a3.2,3.2,0,0,1,1.189,2.554v5.26h-.477a.969.969,0,0,1-.9-.7,3.41,3.41,0,0,1-2.478.95,3.8,3.8,0,0,1-2.669-1,3.157,3.157,0,0,1-1.189-2.528V10.506a3.317,3.317,0,0,1,1.189-2.554,3.949,3.949,0,0,1,2.669-1A4,4,0,0,1,263.017,7.952Zm-2.665.7a2.494,2.494,0,0,0-1.666.6,1.562,1.562,0,0,0-.6,1.251v1.978a1.723,1.723,0,0,0,.6,1.251,2.515,2.515,0,0,0,1.666.575,2.563,2.563,0,0,0,1.666-.575,1.561,1.561,0,0,0,.6-1.251V10.506a1.723,1.723,0,0,0-.6-1.251A2.494,2.494,0,0,0,260.352,8.654Z" transform="translate(-191.102 -3.921)" fill="#fff"/>
    <path id="Path_2633" data-name="Path 2633" d="M279.71,10.561a2.875,2.875,0,0,1,.928-2.305,2.662,2.662,0,0,1,1.832-.675h1.048v.75c0,.628-.261.95-.833.95h-.215a1.2,1.2,0,0,0-.762.275,1.27,1.27,0,0,0-.381,1v5.535h-.713a.792.792,0,0,1-.9-.876V10.561Z" transform="translate(-204.7 -4.277)" fill="#fff"/>
    <path id="Path_2634" data-name="Path 2634" d="M292.24,1.506a.794.794,0,0,1,.9-.876h.713V7.215h.6c.311,0,.617.026.808-.327l1.525-2.606a1.1,1.1,0,0,1,.978-.6h1.264l-1.927,3.3c-.12.174-.215.349-.311.475A2.488,2.488,0,0,1,298,8.862l1.38,3.3h-1.048a.926.926,0,0,1-.953-.527l-.883-2.1a.9.9,0,0,0-.9-.628H293.86v3.282h-.713a.792.792,0,0,1-.9-.876V1.506Z" transform="translate(-212.037 -0.355)" fill="#fff"/>
    <path id="Path_2635" data-name="Path 2635" d="M317.534,7.4a3.174,3.174,0,0,1,1,.876,2.545,2.545,0,0,1,.452,1.477A2.448,2.448,0,0,1,318.723,11a2.419,2.419,0,0,1-.692.8,2.565,2.565,0,0,1-.978.475,3.441,3.441,0,0,1-1.048.148h-1.952a1.008,1.008,0,0,1-.311-.026.5.5,0,0,1-.261-.126v.7a1.056,1.056,0,0,0,.572.95,2.032,2.032,0,0,0,1.094.327,3.181,3.181,0,0,0,1.169-.074,1.967,1.967,0,0,0,.762-.349c.07-.048.12-.126.215-.2a.691.691,0,0,1,.953-.148l.787.4a3.13,3.13,0,0,1-1.977,1.826,4.535,4.535,0,0,1-1.571.275,5.581,5.581,0,0,1-1.239-.126,3.39,3.39,0,0,1-1.169-.527,2.539,2.539,0,0,1-.9-1.129,3.582,3.582,0,0,1-.286-1.451V9.995a3.277,3.277,0,0,1,.261-1.251,2.86,2.86,0,0,1,1.359-1.377,4.19,4.19,0,0,1,1.881-.427A4.63,4.63,0,0,1,317.534,7.4Zm-.6,3.155a.886.886,0,0,0,.452-.7.849.849,0,0,0-.311-.776,2.263,2.263,0,0,0-1.189-.427,4.8,4.8,0,0,0-1.239.1,1.916,1.916,0,0,0-.808.4,1.048,1.048,0,0,0-.356.8v.8h2.669A1.34,1.34,0,0,0,316.937,10.553Z" transform="translate(-223.544 -3.916)" fill="#fff"/>
    <path id="Path_2636" data-name="Path 2636" d="M336.472,3.631v.75c0,.628-.286.95-.833.95H334.59V9.414a1.27,1.27,0,0,0,.381,1,1.134,1.134,0,0,0,.738.275v.776a.641.641,0,0,1-.477.7,1.117,1.117,0,0,1-.833-.1,2.428,2.428,0,0,1-1.023-.95,3.477,3.477,0,0,1-.406-1.726V1.456a.777.777,0,0,1,.883-.876h.738V3.635h1.881Z" transform="translate(-235.889 -0.327)" fill="#fff"/>
    <path id="Path_2637" data-name="Path 2637" d="M354.848,7.91a3.75,3.75,0,0,1,2.549-.95,3.842,3.842,0,0,1,2.573.95,3.164,3.164,0,0,1,1.144,2.427v5.382H360.4a.792.792,0,0,1-.9-.876V10.337a1.465,1.465,0,0,0-.547-1.129,2.392,2.392,0,0,0-3.05,0,1.505,1.505,0,0,0-.547,1.129v5.382h-.713a.792.792,0,0,1-.9-.876V10.337A2.991,2.991,0,0,1,354.848,7.91Z" transform="translate(-248.049 -3.927)" fill="#fff"/>
    <path id="Path_2638" data-name="Path 2638" d="M382.112,7.918a3.265,3.265,0,0,1,1.189,2.554v5.16a2.937,2.937,0,0,1-.311,1.4,3.226,3.226,0,0,1-2.022,1.652,4.969,4.969,0,0,1-1.4.2,6.466,6.466,0,0,1-1.239-.126,1.091,1.091,0,0,1-.738-.427.867.867,0,0,1-.025-.7l.141-.675a3.269,3.269,0,0,0,1.43.275,4.281,4.281,0,0,0,1.43-.174,1.4,1.4,0,0,0,1.169-1.451v-.327a3.981,3.981,0,0,1-2.263.675,3.841,3.841,0,0,1-2.669-1,3.22,3.22,0,0,1-1.189-2.528V10.446A3.317,3.317,0,0,1,376.8,7.892a4,4,0,0,1,2.669-1A4.2,4.2,0,0,1,382.112,7.918Zm-2.689.7a2.494,2.494,0,0,0-1.666.6,1.562,1.562,0,0,0-.6,1.251v1.979a1.723,1.723,0,0,0,.6,1.251,2.515,2.515,0,0,0,1.666.575,2.611,2.611,0,0,0,1.666-.575,1.562,1.562,0,0,0,.6-1.251V10.472a1.723,1.723,0,0,0-.6-1.251A2.4,2.4,0,0,0,379.422,8.62Z" transform="translate(-260.859 -3.887)" fill="#fff"/>
    <path id="Path_2639" data-name="Path 2639" d="M100.275.828a.788.788,0,1,1-1.575,0,.788.788,0,1,1,1.575,0Z" transform="translate(-98.7)" fill="#fff"/>
    <path id="Path_2640" data-name="Path 2640" d="M344.82,8.636a.794.794,0,0,1,.9-.876h.713v8.515h-.713a.792.792,0,0,1-.9-.876Z" transform="translate(-242.828 -4.378)" fill="#fff"/>
    <path id="Path_2641" data-name="Path 2641" d="M346.325,1a.788.788,0,1,1-1.575,0,.814.814,0,0,1,.787-.828A.784.784,0,0,1,346.325,1Z" transform="translate(-242.787 -0.094)" fill="#fff"/>
  </g>
  <g id="Group_155" data-name="Group 155" transform="translate(0 3.212)">
    <path id="Path_2642" data-name="Path 2642" d="M1.243,14.6A2.007,2.007,0,0,1,0,12.678v-.231a.125.125,0,0,1,.033-.087.1.1,0,0,1,.083-.035H1.251a.113.113,0,0,1,.083.035.115.115,0,0,1,.033.087V12.6a.87.87,0,0,0,.369.706,1.57,1.57,0,0,0,.995.288,1.142,1.142,0,0,0,.787-.235.744.744,0,0,0,.257-.58.609.609,0,0,0-.157-.423,1.448,1.448,0,0,0-.431-.305c-.182-.087-.472-.209-.87-.362A8.007,8.007,0,0,1,1.189,11.2a2.294,2.294,0,0,1-.775-.684A1.788,1.788,0,0,1,.1,9.444a1.977,1.977,0,0,1,.307-1.1,2.012,2.012,0,0,1,.854-.723A3.033,3.033,0,0,1,2.524,7.37a3.093,3.093,0,0,1,1.347.283,2.221,2.221,0,0,1,.924.789,2.088,2.088,0,0,1,.332,1.177v.157a.125.125,0,0,1-.033.087A.1.1,0,0,1,5.01,9.9H3.87a.113.113,0,0,1-.083-.035.115.115,0,0,1-.033-.087V9.693a.983.983,0,0,0-.344-.75,1.36,1.36,0,0,0-.941-.309,1.141,1.141,0,0,0-.729.209.7.7,0,0,0-.265.575.643.643,0,0,0,.153.44,1.36,1.36,0,0,0,.456.318c.2.1.514.222.941.383a11.87,11.87,0,0,1,1.111.479,2.238,2.238,0,0,1,.725.623,1.686,1.686,0,0,1,.323,1.072A1.9,1.9,0,0,1,4.5,14.286a2.832,2.832,0,0,1-1.861.571A3.238,3.238,0,0,1,1.243,14.6Z" transform="translate(0 -7.37)" fill="#fff"/>
    <path id="Path_2643" data-name="Path 2643" d="M16.593,14.862a.115.115,0,0,1-.033-.087V7.7a.125.125,0,0,1,.033-.087.113.113,0,0,1,.083-.035H17.84a.113.113,0,0,1,.083.035.115.115,0,0,1,.033.087v7.069a.125.125,0,0,1-.033.087.1.1,0,0,1-.083.035H16.676A.092.092,0,0,1,16.593,14.862Z" transform="translate(-9.698 -7.488)" fill="#fff"/>
    <path id="Path_2644" data-name="Path 2644" d="M28.509,7.614a.115.115,0,0,1,.033.087V8.725a.125.125,0,0,1-.033.087.1.1,0,0,1-.083.035H26.644q-.05,0-.05.052v5.866a.125.125,0,0,1-.033.087.1.1,0,0,1-.083.035H25.314a.113.113,0,0,1-.083-.035.115.115,0,0,1-.033-.087V8.9q0-.052-.05-.052H23.416a.113.113,0,0,1-.083-.035.115.115,0,0,1-.033-.087V7.7a.125.125,0,0,1,.033-.087.113.113,0,0,1,.083-.035H28.43A.093.093,0,0,1,28.509,7.614Z" transform="translate(-13.645 -7.487)" fill="#fff"/>
    <path id="Path_2645" data-name="Path 2645" d="M44.115,8.8a.1.1,0,0,1-.083.035H40.77q-.05,0-.05.052v1.621q0,.052.05.052h2.138a.113.113,0,0,1,.083.035.115.115,0,0,1,.033.087V11.7a.125.125,0,0,1-.033.087.1.1,0,0,1-.083.035H40.77q-.05,0-.05.052v1.7q0,.052.05.052h3.261a.113.113,0,0,1,.083.035.115.115,0,0,1,.033.087v1.015a.125.125,0,0,1-.033.087.1.1,0,0,1-.083.035h-4.6a.113.113,0,0,1-.083-.035.115.115,0,0,1-.033-.087V7.7a.125.125,0,0,1,.033-.087.113.113,0,0,1,.083-.035h4.6a.113.113,0,0,1,.083.035.125.125,0,0,1,.033.087V8.717A.1.1,0,0,1,44.115,8.8Z" transform="translate(-23.026 -7.488)" fill="#fff"/>
    <path id="Path_2646" data-name="Path 2646" d="M64.663,11.145a1.785,1.785,0,0,1,.945,1.7,1.848,1.848,0,0,1-.655,1.534,2.706,2.706,0,0,1-1.72.519H60.656a.113.113,0,0,1-.083-.035.115.115,0,0,1-.033-.087V7.7a.125.125,0,0,1,.033-.087.113.113,0,0,1,.083-.035h2.495q2.356,0,2.358,2.009a1.557,1.557,0,0,1-.845,1.495C64.622,11.1,64.622,11.123,64.663,11.145ZM61.937,8.9v1.63q0,.052.05.052h1.164a1.055,1.055,0,0,0,.725-.231.788.788,0,0,0,.257-.628.84.84,0,0,0-.257-.645,1.042,1.042,0,0,0-.725-.235H61.986A.05.05,0,0,0,61.937,8.9Zm2.01,4.48A.881.881,0,0,0,64.2,12.7a.9.9,0,0,0-.257-.675,1,1,0,0,0-.725-.244H61.986q-.05,0-.05.052v1.734q0,.052.05.052h1.243A.973.973,0,0,0,63.946,13.376Z" transform="translate(-35.452 -7.488)" fill="#fff"/>
    <path id="Path_2647" data-name="Path 2647" d="M76.968,14.853a.115.115,0,0,1-.033-.087V12.121a.212.212,0,0,0-.008-.061L74.871,7.724a.178.178,0,0,1-.021-.061c0-.057.037-.083.108-.083h1.251a.143.143,0,0,1,.141.1l1.243,2.78c.021.044.041.044.058,0l1.243-2.78a.145.145,0,0,1,.141-.1h1.272a.116.116,0,0,1,.1.035.113.113,0,0,1,0,.109l-2.068,4.332a.126.126,0,0,0-.008.061v2.645a.125.125,0,0,1-.033.087.1.1,0,0,1-.083.035H77.055A.1.1,0,0,1,76.968,14.853Z" transform="translate(-43.832 -7.488)" fill="#fff"/>
  </g>
</svg>
