<svg height="90.25" viewBox="0 0 387.541 90.25" width="387.541" xmlns="http://www.w3.org/2000/svg"><path d="m93.179 82.708h17.662v1.982a14.106 14.106 0 0 0 -5.859 3.362q-2.436 2.327-5.117 9.091a39.2 39.2 0 0 1 -4.087 8.1q4.418 6.638 6.934 8.359a9.3 9.3 0 0 0 5.365 1.767 6.547 6.547 0 0 0 5.984-3.836h1.9a10.06 10.06 0 0 1 -3.716 5.731 10.4 10.4 0 0 1 -6.521 2.155q-8.048 0-14.155-8.446-7.222 8.446-15.352 8.446a14.55 14.55 0 0 1 -5.778-1.121 16.054 16.054 0 0 1 -5.077-3.298 16.541 16.541 0 0 1 -3.59-5.086 14.452 14.452 0 0 1 -1.28-6.484 14.636 14.636 0 0 1 2.808-9.089q2.807-3.66 10.854-9.307-4.827-7.021-4.828-12.71a11.376 11.376 0 0 1 3.3-7.972 10.79 10.79 0 0 1 8.294-3.533 13.189 13.189 0 0 1 8.049 2.629 8.233 8.233 0 0 1 3.59 6.895q0 6.635-11.886 12.883 3.716 5.214 7.16 10.211t6.708 9.867a31.814 31.814 0 0 0 3.714-7.109 17.845 17.845 0 0 0 1.362-5.774q0-4.954-6.439-5.731zm-17.788 4.092a22.04 22.04 0 0 0 -6.645 6.464 13.326 13.326 0 0 0 -2.351 7.109 15.05 15.05 0 0 0 4.085 10.038q4.084 4.7 9.244 4.7 5.7 0 10.606-5.9-4.373-6.939-8.088-12.517t-6.851-9.894zm4.127-5.214q8.254-5.04 8.255-10.9a10.1 10.1 0 0 0 -.476-3.167 7.257 7.257 0 0 0 -1.36-2.477 6.07 6.07 0 0 0 -2.125-1.594 6.534 6.534 0 0 0 -2.725-.56 5.986 5.986 0 0 0 -4.787 2.067 7.5 7.5 0 0 0 -1.775 5.127q-.002 4.224 4.992 11.506z" fill="#f7f8f8" opacity=".812" transform="translate(-43.013 -43.574)"/><path d="m87.026 88.022v-.492a7.311 7.311 0 0 0 3.218-.812 3.925 3.925 0 0 0 1.742-1.657 5.476 5.476 0 0 0 .4-1.455c.087-.582.145-1.172.175-1.765q.083-2.955.079-5.638l-.01-5.544-.024-12.659q-1.469 3.312-2.693 6.087t-2.428 5.413q-1.2 2.639-2.428 5.393t-2.7 6.067c-.149.3-.358.769-.623 1.41s-.535 1.3-.8 1.968-.517 1.284-.755 1.836-.385.918-.446 1.1h-.269q-1.436-3.306-2.851-6.568t-2.763-6.279q-1.348-3.02-2.516-5.654t-2.109-4.695q-.944-2.052-1.549-3.44t-.83-1.878q0 2.952-.016 5.212t-.035 4.473q-.021 2.212-.014 4.675l.01 5.723q0 2.106.142 3.647a7 7 0 0 0 .676 2.593 3.863 3.863 0 0 0 1.636 1.651 8.889 8.889 0 0 0 3.02.867v.448l-11.676.02v-.446a7.759 7.759 0 0 0 2.55-.922 4.361 4.361 0 0 0 1.561-1.679 8.6 8.6 0 0 0 .845-2.664 26.652 26.652 0 0 0 .307-3.869q.086-1.926.126-4.541t.035-5.613v-2.192-1.7l-.013-1.743c0-.6-.02-1.325-.049-2.192a4.06 4.06 0 0 0 -.541-2.033 4 4 0 0 0 -1.166-1.229 4.8 4.8 0 0 0 -1.431-.645c-.509-.134-.94-.23-1.3-.289v-.448l9.527-.018 10.737 24.314q1.961-4.26 3.832-8.46t3.362-7.61q1.5-3.4 2.452-5.662t1.091-2.621l9.527-.016v.446a4.858 4.858 0 0 0 -2.8.767 3.665 3.665 0 0 0 -1.315 1.7 9.139 9.139 0 0 0 -.354 2.371q-.088 1.61-.128 3.175c-.029 1.433-.041 2.817-.037 4.16l.006 4.07.01 4.83q0 2.374.053 5.011a13.531 13.531 0 0 0 .116 1.722 3.961 3.961 0 0 0 .381 1.364 3.507 3.507 0 0 0 .336.423 4.571 4.571 0 0 0 .83.714 5.585 5.585 0 0 0 1.343.67 6.282 6.282 0 0 0 1.878.33v.448z" fill="#e8242e" transform="translate(-42.916 -48.431)"/><path d="m94.09 79a7.481 7.481 0 0 0 -1.763 1.244 11.8 11.8 0 0 0 -1.547 1.817q-.74 1.053-1.594 2.391-.575.908-1.594 2.459t-2.1 3.228q-1.07 1.672-2.072 3.2t-1.571 2.391l.018 9.594c0 .924.026 1.822.077 2.7a3.589 3.589 0 0 0 .456 1.836 3.349 3.349 0 0 0 1.866 1.382 21.432 21.432 0 0 0 2.2.521v.478l-14.7.026v-.478a10.738 10.738 0 0 0 2.17-.456 4.906 4.906 0 0 0 1.98-1.508 1.605 1.605 0 0 0 .356-.812 12.617 12.617 0 0 0 .189-1.29c.047-.476.077-.985.092-1.528s.022-1.066.022-1.575q.044-1.339.067-3.175t.014-4.463c-.063-.1-.256-.4-.574-.906s-.71-1.138-1.174-1.885-.973-1.581-1.531-2.5-1.109-1.819-1.651-2.7-1.054-1.691-1.531-2.454-.879-1.384-1.2-1.862q-.908-1.38-1.651-2.524a13.615 13.615 0 0 0 -1.513-1.951 8.331 8.331 0 0 0 -1.506-1.288 3.407 3.407 0 0 0 -1.695-.521v-.478l14.464-.026v.478c-.478.033-.953.081-1.431.145a6.838 6.838 0 0 0 -1.335.313 2.784 2.784 0 0 0 -1 .574 1.268 1.268 0 0 0 -.379.979 4.554 4.554 0 0 0 .694 1.885q.7 1.262 1.461 2.552.528.858 1.246 2.074t1.579 2.575q.864 1.359 1.748 2.79t1.653 2.717q.619-.908 1.522-2.316t1.832-2.87q.929-1.457 1.763-2.8t1.26-2.1c.159-.256.332-.55.523-.885s.374-.684.549-1.05a9.861 9.861 0 0 0 .45-1.125 3.336 3.336 0 0 0 .191-1.052 1.739 1.739 0 0 0 -.385-1.191 2.57 2.57 0 0 0 -.981-.666 6.374 6.374 0 0 0 -1.313-.354q-.714-.121-1.384-.214v-.478l11.027-.02v.478a7.538 7.538 0 0 0 -2.294.674z" fill="#e8242e" transform="translate(-40.943 -27.118)"/><g fill="#fff"><path d="m129.934 79.106v-22.868l-12.028 30.588h-1.036l-11.588-29.552v21.838q0 3.141.159 4.648l3.7.478a2.335 2.335 0 0 1 0 1.474q-3.427-.083-4.86-.081-2.389 0-4.819.12a3.605 3.605 0 0 1 0-1.514l3.623-.4v-23.39q0-3.141-.157-4.648l-3.307-.476a2.093 2.093 0 0 1 0-1.394h8.762l10 26.2 10.235-26.2c.611.026 1.539.039 2.79.039q.4 0 6.252-.12a2.216 2.216 0 0 1 0 1.435l-3.3.476q-.159 1.513-.159 4.655v23.424l3.226.4a3.671 3.671 0 0 1 0 1.514q-2.51-.124-5.456-.12-2.153 0-5.5.081a2.253 2.253 0 0 1 0-1.474l3.3-.478q.163-1.511.163-4.655z" transform="translate(-5.436 -50.306)"/><path d="m128.542 60.435v23.422l3.228.4a3.672 3.672 0 0 1 0 1.514q-2.51-.124-5.458-.12-2.15 0-5.5.081a2.363 2.363 0 0 1 0-1.474l3.307-.478q.159-1.51.159-4.653v-23.427l-3.226-.4a3.423 3.423 0 0 1 0-1.474q2.191.159 5.458.159 2.9 0 5.495-.12a2.215 2.215 0 0 1 0 1.435l-3.3.476q-.161 1.516-.163 4.659z" transform="translate(15.149 -50.326)"/><path d="m154.339 74.924v-14.393q0-3.141-.159-4.652l-3.7-.476a2.308 2.308 0 0 1 0-1.474q2.507.121 4.858.12 2.589 0 4.819-.159a3.608 3.608 0 0 1 0 1.514l-3.625.4v29.787h-2.112l-17.562-23.745q-1.236-1.628-2.908-4.252a41.813 41.813 0 0 1 .2 4.406v17.076q0 3.135.161 4.644l3.7.478a2.308 2.308 0 0 1 0 1.474q-3.424-.083-4.858-.081-2.35 0-4.819.12a3.606 3.606 0 0 1 0-1.514l3.625-.4v-23.39q0-3.141-.161-4.648l-3.3-.476a2.093 2.093 0 0 1 0-1.394h7.802l15.97 21.744c.21.293.444.639.7 1.034s.529.879.836 1.435.551.983.735 1.274q-.201-2.385-.202-4.452z" transform="translate(22.448 -50.267)"/><path d="m171.449 86.7-1.034-3.264a14.845 14.845 0 0 1 -15.734 1.931 14.091 14.091 0 0 1 -4.817-3.745 15.661 15.661 0 0 1 -2.849-5.3 20.036 20.036 0 0 1 -.936-6.075 17.86 17.86 0 0 1 1.1-6.152 16.1 16.1 0 0 1 3.226-5.357 16.439 16.439 0 0 1 5.2-3.8 16.167 16.167 0 0 1 7.009-1.457 21.716 21.716 0 0 1 10.115 2.389v7.65a7.919 7.919 0 0 1 -1.274.116 3.594 3.594 0 0 1 -1-.116l-1.274-6.655a13.282 13.282 0 0 0 -7.048-1.59 9.17 9.17 0 0 0 -4.541 1.134 11.386 11.386 0 0 0 -3.5 3.067 14.318 14.318 0 0 0 -2.271 4.539 18.942 18.942 0 0 0 -.8 5.556 21.738 21.738 0 0 0 .737 5.813 15.078 15.078 0 0 0 2.09 4.622 9.953 9.953 0 0 0 3.287 3.047 8.6 8.6 0 0 0 4.319 1.1 15.3 15.3 0 0 0 7.606-2.113v-8.483l-3.224-.4a1.833 1.833 0 0 1 -.081-.635v-.4a1.384 1.384 0 0 1 .081-.436q1.115.077 2.45.116c.889.029 1.891.041 3.008.041q2.9 0 5.495-.12a2.289 2.289 0 0 1 .12.718 2.258 2.258 0 0 1 -.12.716l-3.307.48q-.08.755-.118 1.913t-.041 2.744v4.026l-.4 4.378a.683.683 0 0 1 -.318.081h-.757a1.034 1.034 0 0 1 -.399-.079z" transform="translate(39.668 -50.659)"/><path d="m179.146 53.484a16.933 16.933 0 0 1 7.011 1.394 13.521 13.521 0 0 1 5.017 3.724 17.254 17.254 0 0 1 2.929 5.176 17.678 17.678 0 0 1 1.014 5.955 17.322 17.322 0 0 1 -4.5 12.108 14.831 14.831 0 0 1 -11.471 4.939 16.857 16.857 0 0 1 -6.967-1.394 13.523 13.523 0 0 1 -5.019-3.724 17.355 17.355 0 0 1 -3.942-11.053 18.258 18.258 0 0 1 2.011-8.485 16.122 16.122 0 0 1 5.693-6.271 14.915 14.915 0 0 1 8.224-2.369zm-.037 31.106a9.6 9.6 0 0 0 6.352-2.172 12.069 12.069 0 0 0 3.743-5.473 22.592 22.592 0 0 0 1.134-7.37 19.709 19.709 0 0 0 -1.134-6.91 11.037 11.037 0 0 0 -3.724-5.017 10.218 10.218 0 0 0 -6.372-1.97 9.518 9.518 0 0 0 -8.285 3.983 16.749 16.749 0 0 0 -2.823 9.954 22.857 22.857 0 0 0 1.112 7.385 11.866 11.866 0 0 0 3.7 5.436 9.515 9.515 0 0 0 6.297 2.154z" transform="translate(56.223 -50.659)"/><path d="m212.239 72.562h-2.629a22.535 22.535 0 0 1 -2.509 6.732l.317.36a40.652 40.652 0 0 0 3.208 3.873q1.174 1.183 1.891 1.184a.6.6 0 0 0 .676-.68 7.481 7.481 0 0 0 -.995-2.493 3.644 3.644 0 0 1 2.866-1.6 1.368 1.368 0 0 1 1.254.6 2.39 2.39 0 0 1 .379 1.311q0 1.2-1.754 2.868a5.845 5.845 0 0 1 -4.18 1.673 7.188 7.188 0 0 1 -3.348-.875 8.5 8.5 0 0 1 -2.866-2.469l-.157-.2a13.076 13.076 0 0 1 -9.362 3.5 9.783 9.783 0 0 1 -6.171-1.913 6.357 6.357 0 0 1 -2.469-5.334 7.774 7.774 0 0 1 1.732-5.1 23.555 23.555 0 0 1 5.835-4.622l-1.754-2.308q-2.787-3.589-2.788-6.413a6.617 6.617 0 0 1 2.092-4.96 8.081 8.081 0 0 1 5.835-2.009 9.38 9.38 0 0 1 5.894 1.573 5.337 5.337 0 0 1 1.994 4.44 6.557 6.557 0 0 1 -1.276 3.706 23.563 23.563 0 0 1 -5.416 4.858l7.408 9.557a20.111 20.111 0 0 0 1.793-5.257h-2.469a3.4 3.4 0 0 1 0-1.471q2.188.159 3.464.159.917 0 3.505-.12a2.2 2.2 0 0 1 0 1.43zm-16.009 11.952a9.558 9.558 0 0 0 7.129-2.988l-8.326-10.754a9.4 9.4 0 0 0 -3.9 7.687 6.464 6.464 0 0 0 1.394 4.581 4.861 4.861 0 0 0 3.703 1.474zm-2.949-25.57a9.133 9.133 0 0 0 2.351 5.576l1.911 2.509a10.976 10.976 0 0 0 2.668-3.144 7.156 7.156 0 0 0 1.075-3.547q0-5.338-3.942-5.338a4.093 4.093 0 0 0 -2.929 1.075 3.762 3.762 0 0 0 -1.134 2.869z" transform="translate(78.608 -50.463)"/><path d="m108.649 85.067 5.257 9 8.322-14.059-3.226-.4a3.424 3.424 0 0 1 0-1.474q2.191.159 4.382.157c1.274 0 2.76-.037 4.459-.12a2.2 2.2 0 0 1 0 1.437l-2.467.476a22.637 22.637 0 0 0 -2.629 3.539l-7.807 12.733v11.812l3.226.4a3.606 3.606 0 0 1 0 1.514q-2.51-.121-5.458-.12-2.147 0-5.495.081a2.335 2.335 0 0 1 0-1.474l3.307-.476q.156-1.513.159-4.653v-7.2l-9.519-16.231-2.827-.4a3.424 3.424 0 0 1 0-1.474q2.188.159 5.973.157 3.465 0 6.053-.12a2.2 2.2 0 0 1 0 1.437l-3.9.755a37.23 37.23 0 0 0 2.19 4.703z" transform="translate(-6.532 -26.843)"/><path d="m116.514 108.677 3.226.4a3.673 3.673 0 0 1 0 1.514q-2.51-.121-4.221-.12-.955 0-4.3.081a2.308 2.308 0 0 1 0-1.474l2.629-.476a19.2 19.2 0 0 0 1.592-3.543l10.274-27.445h1.394l11.55 31.066 3.226.4a3.673 3.673 0 0 1 0 1.514q-2.51-.121-5.615-.12-2.309 0-5.656.081a2.335 2.335 0 0 1 0-1.474l3.3-.476-3.5-9.8h-10.355zm8.841-25.051h-.039q-.478 1.87-1.553 4.9l-2.986 8.283h8.92l-2.908-8.283q-.836-2.426-1.434-4.899z" transform="translate(5.874 -27.353)"/><path d="m153.307 99.234v-14.393q0-3.141-.159-4.652l-3.7-.478a2.308 2.308 0 0 1 0-1.474q2.507.124 4.858.12 2.589 0 4.819-.157a3.6 3.6 0 0 1 0 1.512l-3.625.4v29.788h-2.109l-17.565-23.744q-1.236-1.628-2.908-4.252a41.8 41.8 0 0 1 .2 4.4v17.078q0 3.135.161 4.644l3.7.476a2.308 2.308 0 0 1 0 1.474q-3.424-.083-4.858-.081-2.35 0-4.819.12a3.606 3.606 0 0 1 0-1.514l3.625-.4v-23.384q0-3.141-.161-4.648l-3.3-.478a2.087 2.087 0 0 1 0-1.392h7.807l15.97 21.744c.21.291.444.639.7 1.034s.529.877.836 1.435.55.983.735 1.274q-.206-2.386-.207-4.452z" transform="translate(21.451 -26.784)"/><path d="m157.933 91.919 9.2 12.158a31.181 31.181 0 0 0 3.346 4.052l3.106.317a4.12 4.12 0 0 1 .039 1.514q-5.975-.121-7.406-.12-2.949 0-4.74.159a2.489 2.489 0 0 1 -.039-1.471l3.265-.558a46.316 46.316 0 0 0 -2.829-4.223l-6.69-9.2h-2.271v13.62l3.226.4a3.606 3.606 0 0 1 0 1.514q-2.507-.121-5.456-.12-2.153 0-5.5.081a2.335 2.335 0 0 1 0-1.474l3.3-.476q.162-1.513.161-4.653v-23.43l-3.226-.4a3.424 3.424 0 0 1 0-1.474q2.191.159 5.456.157 2.908 0 5.495-.12a2.2 2.2 0 0 1 0 1.437l-3.3.476q-.162 1.513-.161 4.661v7.8h2.111l10.08-12.537-3.226-.4a3.424 3.424 0 0 1 0-1.474q2.191.159 4.581.157 2.07 0 4.62-.12a2.221 2.221 0 0 1 0 1.437l-2.67.476a25.246 25.246 0 0 0 -3.623 3.547z" transform="translate(38.69 -26.843)"/><path d="m164.36 108.677 3.228.4a3.673 3.673 0 0 1 0 1.514q-2.51-.121-4.223-.12-.955 0-4.3.081a2.308 2.308 0 0 1 0-1.474l2.629-.476a19.2 19.2 0 0 0 1.592-3.543l10.274-27.445h1.394l11.55 31.066 3.226.4a3.673 3.673 0 0 1 0 1.514q-2.51-.121-5.617-.12-2.309 0-5.654.081a2.335 2.335 0 0 1 0-1.474l3.3-.476-3.505-9.8h-10.348zm8.84-25.05h-.039q-.478 1.87-1.555 4.9l-2.986 8.283h8.922l-2.908-8.283q-.834-2.427-1.434-4.9z" transform="translate(52.094 -27.353)"/><path d="m180.9 109.958-5.7.12a2.094 2.094 0 0 1 0-1.394l3.307-.44q.159-2.032.159-4.7v-23.533l-3.226-.4a3.425 3.425 0 0 1 0-1.474q2.191.159 5.456.157 2.908 0 5.5-.12a2.222 2.222 0 0 1 0 1.437l-3.3.476q-.162 1.516-.161 4.667v23.212h13.143l1.872-7.251a3.486 3.486 0 0 1 1.474 0l-.039 9.24z" transform="translate(67.69 -26.843)"/><path d="m193.107 108.677 3.226.4a3.672 3.672 0 0 1 0 1.514q-2.51-.121-4.223-.12-.953 0-4.3.081a2.308 2.308 0 0 1 0-1.474l2.628-.476a19.2 19.2 0 0 0 1.592-3.543l10.274-27.445h1.396l11.55 31.066 3.226.4a3.673 3.673 0 0 1 0 1.514q-2.51-.121-5.615-.12-2.312 0-5.656.081a2.336 2.336 0 0 1 0-1.474l3.3-.476-3.505-9.805h-10.349zm8.841-25.051h-.039q-.478 1.87-1.553 4.9l-2.988 8.283h8.922l-2.908-8.283q-.836-2.426-1.434-4.899z" transform="translate(79.862 -27.353)"/><path d="m204.724 102.311a1.449 1.449 0 0 1 -1.193-1.154 7.065 7.065 0 0 0 3.505-4.142h-.12a2.517 2.517 0 0 1 -2.509-2.509 2.321 2.321 0 0 1 .716-1.734 2.421 2.421 0 0 1 1.754-.7 2.475 2.475 0 0 1 1.813.735 2.572 2.572 0 0 1 .735 1.893 7.258 7.258 0 0 1 -1.235 4.319 13.952 13.952 0 0 1 -3.466 3.292z" transform="translate(95.164 -13.38)"/><path d="m217.587 107.512a11.384 11.384 0 0 0 6.492 1.585 5.313 5.313 0 0 0 4.243-1.628 5.738 5.738 0 0 0 1.414-3.893 8.6 8.6 0 0 0 -.2-2 6.363 6.363 0 0 0 -.857-1.848 7.839 7.839 0 0 0 -2.092-2.064 27.253 27.253 0 0 0 -3.743-2.184 33.245 33.245 0 0 1 -4.38-2.552 9.57 9.57 0 0 1 -2.509-2.465 7.876 7.876 0 0 1 -1.117-2.432 12.5 12.5 0 0 1 -.277-2.868 6.218 6.218 0 0 1 2.807-5.434 11.413 11.413 0 0 1 6.632-1.935 19.048 19.048 0 0 1 9.159 2.389v7.65a5.474 5.474 0 0 1 -2.271 0l-1.274-6.891a11.664 11.664 0 0 0 -5.7-1.394 5.269 5.269 0 0 0 -3.564 1.254 4.4 4.4 0 0 0 -1.453 3.523 9.707 9.707 0 0 0 .159 1.993 5.328 5.328 0 0 0 .8 1.691 7.276 7.276 0 0 0 2.109 1.952 34.631 34.631 0 0 0 3.944 2.17q8.523 4.143 8.524 9.875a8.042 8.042 0 0 1 -3.108 6.574 12.538 12.538 0 0 1 -8.123 2.509 18.385 18.385 0 0 1 -9.16-2.349v-7.65a5.4 5.4 0 0 1 2.269 0z" transform="translate(105.319 -27.176)"/><path d="m229.256 92.076a2.538 2.538 0 0 1 1.811.7 2.288 2.288 0 0 1 .735 1.734 2.509 2.509 0 0 1 -5.017 0 2.323 2.323 0 0 1 .718-1.734 2.421 2.421 0 0 1 1.753-.7z" transform="translate(117.627 -13.38)"/><path d="m256.423 104.4a2.772 2.772 0 0 1 1.036 1.514q-5.538 5.178-11.232 5.18a15.45 15.45 0 0 1 -6.81-1.414 14.122 14.122 0 0 1 -4.819-3.747 15.654 15.654 0 0 1 -2.847-5.3 20.024 20.024 0 0 1 -.936-6.073 18.112 18.112 0 0 1 1.075-6.152 16.507 16.507 0 0 1 3.146-5.377 15.406 15.406 0 0 1 5.119-3.8 16.094 16.094 0 0 1 6.948-1.433 19.811 19.811 0 0 1 9.559 2.389v7.65a8.192 8.192 0 0 1 -1.274.116 3.625 3.625 0 0 1 -.995-.116l-1.276-6.655a11.713 11.713 0 0 0 -6.492-1.59 9.05 9.05 0 0 0 -4.52 1.134 10.794 10.794 0 0 0 -3.427 3.065 14.478 14.478 0 0 0 -2.168 4.541 19.822 19.822 0 0 0 -.757 5.556 21.657 21.657 0 0 0 .737 5.813 15.077 15.077 0 0 0 2.09 4.622 9.966 9.966 0 0 0 3.285 3.047 8.636 8.636 0 0 0 4.321 1.1 14.259 14.259 0 0 0 5.536-1.115 16.463 16.463 0 0 0 4.701-2.955z" transform="translate(121.521 -27.176)"/><path d="m248.64 92.076a2.546 2.546 0 0 1 1.813.7 2.3 2.3 0 0 1 .735 1.734 2.509 2.509 0 0 1 -5.017 0 2.321 2.321 0 0 1 .716-1.734 2.421 2.421 0 0 1 1.753-.7z" transform="translate(136.353 -13.38)"/></g><path d="m-.35-.35h77.587v90.25h-77.587zm76.887.7h-76.187v88.85h76.187z" fill="#e8242e" transform="translate(.35 .35)"/><path d="m61.808.35h-61.808v-.7h61.808z" fill="#e8242e" transform="translate(7.89 45.125)"/></svg>