<svg xmlns="http://www.w3.org/2000/svg" width="257.828" height="60.25" viewBox="0 0 257.828 60.25"><g transform="translate(0.35 0.35)"><g transform="translate(11.388 11.235)" opacity="0.812"><path d="M82.227,75.375H93.972v1.318a9.38,9.38,0,0,0-3.9,2.236q-1.62,1.547-3.4,6.045a26.068,26.068,0,0,1-2.718,5.386q2.938,4.414,4.611,5.559a6.186,6.186,0,0,0,3.568,1.175,4.354,4.354,0,0,0,3.98-2.551h1.263a6.689,6.689,0,0,1-2.471,3.811,6.916,6.916,0,0,1-4.336,1.433q-5.352,0-9.413-5.616-4.8,5.616-10.209,5.616a9.676,9.676,0,0,1-3.842-.745,10.676,10.676,0,0,1-3.376-2.191,11,11,0,0,1-2.387-3.382,9.61,9.61,0,0,1-.851-4.312,9.733,9.733,0,0,1,1.866-6.047,34.649,34.649,0,0,1,7.218-6.189q-3.21-4.669-3.211-8.452a7.565,7.565,0,0,1,2.2-5.3,7.176,7.176,0,0,1,5.516-2.349,8.771,8.771,0,0,1,5.352,1.748,5.475,5.475,0,0,1,2.387,4.585q0,4.412-7.9,8.567,2.471,3.467,4.761,6.79t4.461,6.562a21.157,21.157,0,0,0,2.47-4.727,11.867,11.867,0,0,0,.906-3.84q0-3.295-4.282-3.811ZM70.4,78.1a14.656,14.656,0,0,0-4.419,4.3,8.862,8.862,0,0,0-1.564,4.727A10.008,10.008,0,0,0,67.132,93.8a8.014,8.014,0,0,0,6.147,3.123q3.789,0,7.053-3.925-2.908-4.614-5.378-8.324T70.4,78.1Zm2.744-3.467q5.489-3.351,5.49-7.249a6.714,6.714,0,0,0-.316-2.106,4.826,4.826,0,0,0-.9-1.647A4.036,4.036,0,0,0,76,62.567a4.345,4.345,0,0,0-1.812-.373A3.98,3.98,0,0,0,71,63.57a4.984,4.984,0,0,0-1.181,3.41Q69.821,69.787,73.142,74.63Z" transform="translate(-60.488 -60.819)" fill="#c1c1c1"/></g><g transform="translate(11.519 4.66)"><path d="M78.169,77.224V76.9a4.862,4.862,0,0,0,2.14-.54,2.61,2.61,0,0,0,1.158-1.1,3.642,3.642,0,0,0,.267-.967c.058-.387.1-.779.116-1.174q.055-1.965.052-3.75L81.9,65.678l-.016-8.418q-.977,2.2-1.791,4.048t-1.615,3.6q-.8,1.755-1.615,3.586t-1.792,4.034c-.1.2-.238.511-.414.937s-.356.863-.535,1.309-.344.854-.5,1.221-.256.611-.3.729H73.14q-.955-2.2-1.9-4.368t-1.837-4.176q-.9-2.008-1.673-3.76t-1.4-3.122q-.628-1.365-1.03-2.288t-.552-1.249q0,1.963-.01,3.466t-.024,2.974q-.014,1.471-.009,3.109l.007,3.806q0,1.4.094,2.425a4.656,4.656,0,0,0,.45,1.724,2.569,2.569,0,0,0,1.088,1.1,5.911,5.911,0,0,0,2.008.577v.3l-7.764.013v-.3a5.16,5.16,0,0,0,1.7-.613,2.9,2.9,0,0,0,1.038-1.116,5.718,5.718,0,0,0,.562-1.771,17.725,17.725,0,0,0,.2-2.573q.057-1.281.084-3.02t.024-3.732l0-1.458v-1.13l0-1.161c0-.4-.013-.881-.033-1.458a2.7,2.7,0,0,0-.36-1.352,2.663,2.663,0,0,0-.775-.817,3.194,3.194,0,0,0-.952-.429c-.339-.089-.625-.153-.863-.192v-.3l6.335-.012L74.679,72q1.3-2.83,2.548-5.627t2.236-5.061q.994-2.261,1.63-3.765t.726-1.743l6.335-.01v.3a3.231,3.231,0,0,0-1.859.51,2.437,2.437,0,0,0-.875,1.132,6.077,6.077,0,0,0-.235,1.577q-.059,1.071-.085,2.111c-.02.953-.027,1.873-.025,2.766l0,2.706.007,3.212q0,1.579.035,3.332a9,9,0,0,0,.077,1.145,2.634,2.634,0,0,0,.254.907,2.333,2.333,0,0,0,.224.281,3.04,3.04,0,0,0,.552.475,3.714,3.714,0,0,0,.893.446,4.178,4.178,0,0,0,1.249.22v.3Z" transform="translate(-60.588 -55.79)" fill="#e8242e"/></g><path d="M83.55,78.619a4.975,4.975,0,0,0-1.173.828,7.846,7.846,0,0,0-1.029,1.208q-.492.7-1.06,1.59-.382.6-1.06,1.635t-1.394,2.147q-.712,1.112-1.378,2.13t-1.045,1.59l.012,6.38c0,.614.017,1.212.051,1.794a2.386,2.386,0,0,0,.3,1.221,2.227,2.227,0,0,0,1.241.919,14.255,14.255,0,0,0,1.46.346v.318l-9.776.017v-.318a7.141,7.141,0,0,0,1.443-.3,3.262,3.262,0,0,0,1.317-1,1.068,1.068,0,0,0,.237-.54,8.389,8.389,0,0,0,.126-.858c.031-.316.051-.655.061-1.016s.014-.709.014-1.047q.029-.89.044-2.111t.009-2.968c-.042-.064-.17-.265-.382-.6s-.472-.757-.78-1.254-.647-1.051-1.018-1.664-.737-1.209-1.1-1.792-.7-1.124-1.018-1.632-.584-.92-.8-1.238q-.6-.918-1.1-1.679a9.052,9.052,0,0,0-1-1.3,5.54,5.54,0,0,0-1-.856,2.266,2.266,0,0,0-1.127-.346v-.318l9.618-.017V78.2c-.318.022-.634.054-.952.1a4.547,4.547,0,0,0-.888.208,1.851,1.851,0,0,0-.667.382.843.843,0,0,0-.252.651,3.028,3.028,0,0,0,.462,1.254q.463.839.971,1.7.351.571.829,1.379t1.05,1.713q.575.9,1.162,1.855t1.1,1.807q.412-.6,1.012-1.54t1.218-1.909q.618-.969,1.173-1.859t.838-1.4c.106-.17.221-.366.348-.588s.248-.455.365-.7a6.558,6.558,0,0,0,.3-.748,2.218,2.218,0,0,0,.127-.7,1.157,1.157,0,0,0-.256-.792,1.709,1.709,0,0,0-.652-.443,4.239,4.239,0,0,0-.873-.235q-.475-.08-.92-.143v-.318l7.333-.013v.318A5.013,5.013,0,0,0,83.55,78.619Z" transform="translate(-48.441 -44.348)" fill="#e8242e"/><path d="M119.7,70.645V55.437l-8,20.341h-.689l-7.706-19.652V70.649q0,2.089.106,3.091l2.463.318a1.553,1.553,0,0,1,0,.981q-2.279-.055-3.232-.054-1.588,0-3.2.08a2.4,2.4,0,0,1,0-1.007l2.409-.265V58.236q0-2.089-.1-3.091l-2.2-.316a1.392,1.392,0,0,1,0-.927h5.827l6.647,17.426L118.826,53.9c.407.017,1.024.026,1.855.026q.263,0,4.157-.08a1.473,1.473,0,0,1,0,.954l-2.2.316q-.106,1.006-.106,3.1V73.791l2.145.265a2.441,2.441,0,0,1,0,1.007q-1.669-.082-3.628-.08-1.432,0-3.655.054a1.5,1.5,0,0,1,0-.981l2.2-.318Q119.7,72.735,119.7,70.645Z" transform="translate(-37.144 -51.726)" fill="#02081c"/><path d="M125.914,58.222V73.8l2.147.265a2.442,2.442,0,0,1,0,1.007q-1.669-.082-3.629-.08-1.43,0-3.655.054a1.571,1.571,0,0,1,0-.981l2.2-.318q.106-1,.106-3.095V55.072l-2.145-.263a2.277,2.277,0,0,1,0-.981q1.457.106,3.629.106,1.932,0,3.654-.08a1.473,1.473,0,0,1,0,.954l-2.2.316Q125.916,56.132,125.914,58.222Z" transform="translate(-30.594 -51.732)" fill="#02081c"/><path d="M145.6,67.877V58.306q0-2.089-.106-3.093l-2.462-.316a1.535,1.535,0,0,1,0-.981q1.667.08,3.23.08,1.722,0,3.2-.106a2.4,2.4,0,0,1,0,1.007l-2.411.263V74.971h-1.4l-11.679-15.79q-.822-1.082-1.934-2.828a27.8,27.8,0,0,1,.131,2.93V70.639q0,2.085.107,3.088l2.462.318a1.535,1.535,0,0,1,0,.981q-2.277-.055-3.23-.054-1.563,0-3.2.08a2.4,2.4,0,0,1,0-1.007l2.411-.265V58.224q0-2.089-.107-3.091l-2.2-.316a1.392,1.392,0,0,1,0-.927H133.6l10.62,14.459c.14.195.3.425.464.688s.352.584.556.954.366.654.489.847Q145.6,69.252,145.6,67.877Z" transform="translate(-28.272 -51.714)" fill="#02081c"/><path d="M162.95,75.572l-.688-2.17A9.872,9.872,0,0,1,151.8,74.685a9.37,9.37,0,0,1-3.2-2.491,10.415,10.415,0,0,1-1.894-3.522,13.324,13.324,0,0,1-.622-4.04,11.877,11.877,0,0,1,.728-4.091,10.708,10.708,0,0,1,2.145-3.563,10.931,10.931,0,0,1,3.457-2.527,10.751,10.751,0,0,1,4.661-.969,14.441,14.441,0,0,1,6.726,1.588v5.087a5.266,5.266,0,0,1-.847.077,2.39,2.39,0,0,1-.663-.077l-.847-4.425a8.832,8.832,0,0,0-4.687-1.058,6.1,6.1,0,0,0-3.02.754,7.572,7.572,0,0,0-2.33,2.039,9.521,9.521,0,0,0-1.51,3.019,12.6,12.6,0,0,0-.529,3.695,14.456,14.456,0,0,0,.49,3.866,10.026,10.026,0,0,0,1.39,3.074,6.619,6.619,0,0,0,2.186,2.026,5.721,5.721,0,0,0,2.872.728,10.177,10.177,0,0,0,5.058-1.405v-5.64l-2.144-.265a1.219,1.219,0,0,1-.054-.422v-.265a.92.92,0,0,1,.054-.29q.741.051,1.629.077c.591.02,1.258.027,2,.027q1.932,0,3.654-.08a1.522,1.522,0,0,1,.08.477,1.5,1.5,0,0,1-.08.476l-2.2.319q-.053.5-.078,1.272t-.027,1.825V72.66l-.264,2.911a.455.455,0,0,1-.212.054h-.5A.688.688,0,0,1,162.95,75.572Z" transform="translate(-22.793 -51.838)" fill="#02081c"/><path d="M173.81,53.484a11.26,11.26,0,0,1,4.662.927,8.991,8.991,0,0,1,3.336,2.476,11.474,11.474,0,0,1,1.948,3.442,11.756,11.756,0,0,1,.675,3.96,11.519,11.519,0,0,1-2.993,8.052,9.863,9.863,0,0,1-7.628,3.284,11.21,11.21,0,0,1-4.633-.927,8.993,8.993,0,0,1-3.338-2.476,11.541,11.541,0,0,1-2.621-7.35,12.142,12.142,0,0,1,1.337-5.643,10.721,10.721,0,0,1,3.786-4.17A9.919,9.919,0,0,1,173.81,53.484Zm-.025,20.685a6.382,6.382,0,0,0,4.224-1.445,8.026,8.026,0,0,0,2.489-3.64,15.024,15.024,0,0,0,.754-4.9,13.106,13.106,0,0,0-.754-4.6,7.34,7.34,0,0,0-2.476-3.336,6.8,6.8,0,0,0-4.237-1.31,6.329,6.329,0,0,0-5.509,2.649,11.138,11.138,0,0,0-1.88,6.62,15.2,15.2,0,0,0,.741,4.912,7.891,7.891,0,0,0,2.463,3.615A6.327,6.327,0,0,0,173.785,74.169Z" transform="translate(-17.525 -51.838)" fill="#02081c"/><path d="M203.58,66.239h-1.748a14.985,14.985,0,0,1-1.668,4.476l.21.239a27.03,27.03,0,0,0,2.134,2.576q.781.786,1.258.787a.4.4,0,0,0,.45-.452,4.975,4.975,0,0,0-.662-1.658,2.423,2.423,0,0,1,1.906-1.067.91.91,0,0,1,.834.4,1.589,1.589,0,0,1,.252.872,3,3,0,0,1-1.166,1.907A3.887,3.887,0,0,1,202.6,75.43a4.78,4.78,0,0,1-2.226-.582,5.651,5.651,0,0,1-1.906-1.642l-.1-.132a8.7,8.7,0,0,1-6.226,2.33,6.505,6.505,0,0,1-4.1-1.272,4.227,4.227,0,0,1-1.642-3.547,5.17,5.17,0,0,1,1.152-3.39,15.664,15.664,0,0,1,3.88-3.074l-1.166-1.535a7.291,7.291,0,0,1-1.854-4.265,4.4,4.4,0,0,1,1.391-3.3,5.374,5.374,0,0,1,3.88-1.336,6.238,6.238,0,0,1,3.919,1.046,3.549,3.549,0,0,1,1.324,2.952,4.36,4.36,0,0,1-.848,2.464,15.669,15.669,0,0,1-3.6,3.23l4.926,6.355a13.374,13.374,0,0,0,1.192-3.5h-1.642a2.264,2.264,0,0,1,0-.978q1.455.106,2.3.106.61,0,2.331-.08A1.466,1.466,0,0,1,203.58,66.239Zm-10.646,7.947a6.356,6.356,0,0,0,4.74-1.987l-5.537-7.151a6.254,6.254,0,0,0-2.594,5.112,4.3,4.3,0,0,0,.927,3.046A3.232,3.232,0,0,0,192.934,74.186Zm-1.961-17a6.073,6.073,0,0,0,1.564,3.708l1.271,1.668a7.3,7.3,0,0,0,1.774-2.09,4.759,4.759,0,0,0,.715-2.358q0-3.549-2.621-3.549a2.722,2.722,0,0,0-1.948.715A2.5,2.5,0,0,0,190.973,57.183Z" transform="translate(-10.402 -51.776)" fill="#02081c"/><path d="M105.166,82.746l3.5,5.985,5.534-9.349-2.145-.263a2.277,2.277,0,0,1,0-.981q1.457.106,2.914.1c.847,0,1.836-.025,2.965-.08a1.46,1.46,0,0,1,0,.956l-1.641.316a15.053,15.053,0,0,0-1.748,2.353l-5.192,8.464v7.855l2.145.264a2.4,2.4,0,0,1,0,1.007q-1.669-.08-3.629-.08-1.428,0-3.654.054a1.553,1.553,0,0,1,0-.981l2.2-.316q.1-1.006.106-3.095V90.173l-6.33-10.791-1.88-.263a2.277,2.277,0,0,1,0-.981q1.455.106,3.972.1,2.3,0,4.025-.08a1.46,1.46,0,0,1,0,.956l-2.6.5A24.758,24.758,0,0,0,105.166,82.746Z" transform="translate(-37.492 -44.26)" fill="#02081c"/><path d="M114.7,98.27l2.145.264a2.442,2.442,0,0,1,0,1.007q-1.669-.08-2.807-.08-.635,0-2.86.054a1.535,1.535,0,0,1,0-.98l1.748-.316a12.769,12.769,0,0,0,1.059-2.356l6.832-18.251h.927l7.681,20.659,2.145.264a2.442,2.442,0,0,1,0,1.007q-1.669-.08-3.734-.08-1.535,0-3.761.054a1.553,1.553,0,0,1,0-.98l2.2-.316-2.33-6.516h-6.886Zm5.879-16.658h-.026q-.318,1.243-1.033,3.257l-1.986,5.508h5.931l-1.934-5.508Q120.976,83.254,120.578,81.612Z" transform="translate(-33.545 -44.423)" fill="#02081c"/><path d="M144.568,92.187V82.616q0-2.088-.106-3.093L142,79.205a1.535,1.535,0,0,1,0-.981q1.667.082,3.23.08,1.722,0,3.2-.1a2.393,2.393,0,0,1,0,1.005l-2.411.264V99.28h-1.4L132.943,83.491q-.822-1.083-1.934-2.828a27.8,27.8,0,0,1,.131,2.928V94.949q0,2.085.107,3.088l2.462.316a1.535,1.535,0,0,1,0,.981q-2.277-.055-3.23-.054-1.563,0-3.2.08a2.4,2.4,0,0,1,0-1.007l2.411-.264V82.534q0-2.089-.107-3.091l-2.2-.318a1.388,1.388,0,0,1,0-.926h5.191l10.62,14.459c.14.193.3.425.464.688s.352.583.556.954.366.654.489.847Q144.569,93.56,144.568,92.187Z" transform="translate(-28.589 -44.242)" fill="#02081c"/><path d="M153.623,87.3l6.117,8.085a20.734,20.734,0,0,0,2.225,2.694l2.066.21a2.74,2.74,0,0,1,.026,1.007q-3.973-.08-4.925-.08-1.961,0-3.152.106a1.655,1.655,0,0,1-.026-.978l2.172-.371a30.8,30.8,0,0,0-1.881-2.808L151.8,89.05h-1.51v9.057l2.145.264a2.4,2.4,0,0,1,0,1.007q-1.667-.08-3.628-.08-1.432,0-3.655.054a1.553,1.553,0,0,1,0-.981l2.2-.316q.108-1.006.107-3.095V79.382l-2.145-.263a2.277,2.277,0,0,1,0-.981q1.457.106,3.628.1,1.934,0,3.654-.08a1.46,1.46,0,0,1,0,.956l-2.2.316q-.108,1.006-.107,3.1v5.189h1.4l6.7-8.342-2.145-.263a2.276,2.276,0,0,1,0-.981q1.457.106,3.046.1,1.377,0,3.072-.08a1.477,1.477,0,0,1,0,.956l-1.775.316a16.787,16.787,0,0,0-2.409,2.358Z" transform="translate(-23.104 -44.26)" fill="#02081c"/><path d="M162.546,98.27l2.147.264a2.442,2.442,0,0,1,0,1.007q-1.669-.08-2.808-.08-.635,0-2.859.054a1.535,1.535,0,0,1,0-.98l1.748-.316a12.77,12.77,0,0,0,1.059-2.356l6.832-18.251h.927l7.681,20.659,2.145.264a2.443,2.443,0,0,1,0,1.007q-1.669-.08-3.735-.08-1.535,0-3.76.054a1.553,1.553,0,0,1,0-.98l2.2-.316L171.789,91.7H164.9Zm5.88-16.658H168.4q-.318,1.243-1.034,3.257l-1.986,5.508h5.933l-1.934-5.508Q168.824,83.254,168.426,81.612Z" transform="translate(-18.839 -44.423)" fill="#02081c"/><path d="M178.956,99.3l-3.787.08a1.392,1.392,0,0,1,0-.927l2.2-.293q.106-1.351.106-3.127V79.384l-2.145-.264a2.277,2.277,0,0,1,0-.981q1.457.106,3.628.1,1.934,0,3.655-.08a1.478,1.478,0,0,1,0,.956l-2.2.316q-.108,1.008-.107,3.1V97.976h8.74l1.245-4.822a2.319,2.319,0,0,1,.981,0l-.026,6.145Z" transform="translate(-13.876 -44.26)" fill="#02081c"/><path d="M191.292,98.27l2.145.264a2.442,2.442,0,0,1,0,1.007q-1.669-.08-2.808-.08-.633,0-2.859.054a1.535,1.535,0,0,1,0-.98l1.748-.316a12.768,12.768,0,0,0,1.059-2.356l6.832-18.251h.927l7.681,20.659,2.145.264a2.442,2.442,0,0,1,0,1.007q-1.669-.08-3.734-.08-1.537,0-3.761.054a1.553,1.553,0,0,1,0-.98l2.2-.316L200.534,91.7h-6.885Zm5.879-16.658h-.026q-.318,1.243-1.033,3.257l-1.987,5.508h5.933l-1.934-5.508Q197.569,83.254,197.171,81.612Z" transform="translate(-10.004 -44.423)" fill="#02081c"/><path d="M204.325,98.882a.964.964,0,0,1-.794-.767,4.7,4.7,0,0,0,2.331-2.755h-.08a1.674,1.674,0,0,1-1.668-1.668,1.543,1.543,0,0,1,.476-1.153,1.61,1.61,0,0,1,1.166-.463,1.646,1.646,0,0,1,1.205.489,1.711,1.711,0,0,1,.489,1.259,4.827,4.827,0,0,1-.821,2.872A9.278,9.278,0,0,1,204.325,98.882Z" transform="translate(-5.135 -39.977)" fill="#02081c"/><path d="M216.4,97.556a7.57,7.57,0,0,0,4.317,1.054,3.533,3.533,0,0,0,2.821-1.082,3.816,3.816,0,0,0,.94-2.589,5.718,5.718,0,0,0-.132-1.331,4.232,4.232,0,0,0-.57-1.229,5.213,5.213,0,0,0-1.391-1.373,18.123,18.123,0,0,0-2.489-1.452,22.108,22.108,0,0,1-2.913-1.7,6.364,6.364,0,0,1-1.668-1.639,5.237,5.237,0,0,1-.743-1.617,8.314,8.314,0,0,1-.184-1.907,4.135,4.135,0,0,1,1.867-3.614,7.589,7.589,0,0,1,4.41-1.285,12.667,12.667,0,0,1,6.091,1.588v5.087a3.64,3.64,0,0,1-1.51,0l-.847-4.582a7.756,7.756,0,0,0-3.787-.927,3.5,3.5,0,0,0-2.37.834,2.926,2.926,0,0,0-.966,2.343,6.456,6.456,0,0,0,.106,1.326,3.543,3.543,0,0,0,.53,1.124,4.839,4.839,0,0,0,1.4,1.3,23.028,23.028,0,0,0,2.623,1.443Q227.6,90.084,227.6,93.9a5.348,5.348,0,0,1-2.067,4.372,8.338,8.338,0,0,1-5.4,1.668,12.226,12.226,0,0,1-6.091-1.562V93.286a3.59,3.59,0,0,1,1.509,0Z" transform="translate(-1.903 -44.366)" fill="#02081c"/><path d="M228.428,92.076a1.688,1.688,0,0,1,1.2.463,1.521,1.521,0,0,1,.489,1.153,1.668,1.668,0,0,1-3.336,0,1.544,1.544,0,0,1,.477-1.153A1.61,1.61,0,0,1,228.428,92.076Z" transform="translate(2.013 -39.977)" fill="#02081c"/><path d="M247.844,95.484a1.844,1.844,0,0,1,.689,1.007q-3.683,3.444-7.469,3.445a10.274,10.274,0,0,1-4.529-.94,9.392,9.392,0,0,1-3.2-2.492,10.41,10.41,0,0,1-1.893-3.522,13.316,13.316,0,0,1-.622-4.038,12.044,12.044,0,0,1,.715-4.091,10.977,10.977,0,0,1,2.092-3.576,10.245,10.245,0,0,1,3.4-2.53,10.7,10.7,0,0,1,4.62-.953A13.174,13.174,0,0,1,248,79.382v5.087a5.446,5.446,0,0,1-.847.077,2.41,2.41,0,0,1-.662-.077l-.848-4.425a7.789,7.789,0,0,0-4.317-1.058,6.018,6.018,0,0,0-3.006.754,7.178,7.178,0,0,0-2.279,2.038A9.628,9.628,0,0,0,234.6,84.8a13.182,13.182,0,0,0-.5,3.695,14.4,14.4,0,0,0,.49,3.866,10.027,10.027,0,0,0,1.39,3.074,6.627,6.627,0,0,0,2.185,2.026,5.743,5.743,0,0,0,2.874.728,9.482,9.482,0,0,0,3.682-.741A10.948,10.948,0,0,0,247.844,95.484Z" transform="translate(3.252 -44.366)" fill="#02081c"/><path d="M247.813,92.076a1.693,1.693,0,0,1,1.205.463,1.526,1.526,0,0,1,.489,1.153,1.668,1.668,0,0,1-3.336,0,1.543,1.543,0,0,1,.476-1.153A1.61,1.61,0,0,1,247.813,92.076Z" transform="translate(7.971 -39.977)" fill="#02081c"/><path d="M-.35-.35H51.479V59.9H-.35Zm51.129.7H.35V59.2H50.779Z" fill="#e8242e"/><path d="M41.1.35H0v-.7H41.1Z" transform="translate(5.014 29.775)" fill="#e8242e"/></g></svg>