<?xml version="1.0" encoding="utf-8"?>
<!-- Generator: Adobe Illustrator 26.0.1, SVG Export Plug-In . SVG Version: 6.00 Build 0)  -->
<svg version="1.1" id="Layer_1" xmlns="http://www.w3.org/2000/svg" xmlns:xlink="http://www.w3.org/1999/xlink" x="0px" y="0px"
	 width="105px" height="70px" viewBox="0 0 105 70" style="enable-background:new 0 0 105 70;" xml:space="preserve">
<style type="text/css">
	.st0{fill:#A57D4C;}
</style>
<g transform="translate(-208 -48)">
	<path class="st0" d="M260.4,48.4c3,0,5.5,2.5,5.5,5.5s-2.5,5.5-5.5,5.5c-3,0-5.5-2.5-5.5-5.5C254.9,50.8,257.3,48.4,260.4,48.4z
		 M260.4,57.4c1.9,0,3.5-1.6,3.5-3.5c0-1.9-1.6-3.5-3.5-3.5c-1.9,0-3.5,1.6-3.5,3.5C256.9,55.8,258.4,57.4,260.4,57.4z"/>
	<path class="st0" d="M260.9,79.4c-0.6,0-1-0.4-1-1v-20c0-0.6,0.4-1,1-1c0.6,0,1,0.4,1,1v20C261.9,78.9,261.4,79.4,260.9,79.4z"/>
	<path class="st0" d="M279.4,72.3c-0.2,0-0.3,0-0.5,0c-1.9,0-3.6-0.9-4.7-2.4c-0.3-0.5-0.2-1.1,0.3-1.4s1.1-0.2,1.4,0.3
		c0.7,1,1.9,1.5,3.1,1.5c1.5,0.1,3-0.5,4-1.6c0.2-0.3,0.6-0.4,1-0.3c1.2,0.3,2.5,0.4,3.8,0.2c0.9-0.2,1.7-0.7,2.3-1.3
		c1-1.2,1.8-2.5,2.3-4c-2.2,0.5-4.5,0.3-6.7-0.4c-2.5-0.9-4.8-2.2-7-3.7c-1.9-1.3-3.8-2.4-5-2.4c-1.8,0-2.9,1.4-4.1,2.9
		c-0.6,0.8-1.2,1.5-1.9,2.2c-0.8,0.7-1.7,1.2-2.8,1.4c-0.5,0.1-1.1-0.3-1.2-0.8c-0.1-0.5,0.3-1.1,0.8-1.2l0,0
		c1.4-0.3,2.4-1.5,3.5-2.9c1.4-1.7,2.9-3.7,5.7-3.7c1.8,0,3.8,1.3,6.1,2.8c2,1.4,4.2,2.6,6.5,3.5c2.4,0.9,5,0.8,7.3-0.2
		c0.5-0.2,1.1,0,1.3,0.5c0.1,0.2,0.1,0.5,0,0.8c-0.1,0.3-0.2,0.5-0.3,0.8c-0.6,2.2-1.7,4.1-3.2,5.8c-0.9,0.9-2,1.5-3.2,1.8
		c-1.4,0.3-2.8,0.3-4.1,0C282.9,71.6,281.2,72.3,279.4,72.3z"/>
	<path class="st0" d="M241.6,72.3c-1.8,0-3.5-0.7-4.8-1.9c-1.4,0.3-2.8,0.3-4.1,0c-1.2-0.3-2.4-0.9-3.2-1.8
		c-1.5-1.7-2.5-3.7-3.2-5.8c-0.1-0.3-0.2-0.6-0.3-0.8c-0.2-0.5,0.1-1.1,0.6-1.3c0.2-0.1,0.5-0.1,0.8,0c2.3,1,4.9,1.1,7.3,0.2
		c2.3-0.9,4.5-2.1,6.5-3.5c2.3-1.5,4.3-2.8,6.1-2.8c2.8,0,4.3,2,5.7,3.7c1.1,1.3,2.1,2.6,3.5,2.9c0.5,0.1,0.9,0.6,0.8,1.2
		c-0.1,0.5-0.6,0.9-1.2,0.8c-2.2-0.4-3.5-2.1-4.7-3.6c-1.2-1.6-2.3-2.9-4.1-2.9c-1.2,0-3,1.2-5,2.4c-2.2,1.5-4.5,2.8-7,3.7
		c-2.1,0.8-4.5,0.9-6.7,0.4c0.5,1.5,1.3,2.8,2.3,4c0.6,0.6,1.4,1.1,2.3,1.3c1.2,0.2,2.5,0.2,3.8-0.1c0.4-0.1,0.8,0,1,0.3
		c1,1.2,2.5,1.8,4,1.6c1.2,0,2.4-0.6,3.1-1.5c0.3-0.5,0.9-0.6,1.4-0.3c0.5,0.3,0.6,0.9,0.3,1.4c0,0,0,0,0,0
		c-1.1,1.5-2.8,2.4-4.7,2.4C241.9,72.3,241.7,72.3,241.6,72.3z"/>
	<path class="st0" d="M262.9,101.5c-0.6,0-1-0.4-1-1c0-0.3,0.1-0.6,0.4-0.8c2.7-2.2,4.5-5.4,4.5-7.9c0-1.8-0.6-3.5-1.8-4.8
		c-1.3-1.4-3-2.5-4.9-3c-0.5-0.2-1.1-0.3-1.7-0.5c-2.4-0.6-4.7-1.6-6.9-2.8c-2.3-1.3-3.8-3.7-3.8-6.4c0-3,2.4-5.4,5.4-5.4
		c1.1,0,2.1,0.3,3,0.9c0.5,0.3,0.6,0.9,0.3,1.4c-0.3,0.5-0.9,0.6-1.4,0.3c0,0,0,0,0,0c-1.6-1-3.7-0.6-4.7,0.9
		c-0.4,0.6-0.6,1.2-0.6,1.9c0,1.9,0.9,3.4,2.9,4.7c2,1.1,4.2,2,6.4,2.6c0.6,0.2,1.2,0.4,1.7,0.5c2.2,0.7,4.2,1.9,5.7,3.6
		c1.5,1.7,2.3,3.9,2.3,6.1c-0.1,1.8-0.6,3.5-1.5,5.1c-1,1.7-2.2,3.2-3.8,4.4C263.4,101.4,263.2,101.5,262.9,101.5z"/>
	<path class="st0" d="M262.7,117.6c-0.6,0-1-0.4-1-1c0-0.1,0-0.2,0.1-0.3c0.7-1.7,1.1-3.5,1.4-5.4c0-3.8-2.6-6.4-5.3-9.1
		c-2.8-2.8-5.6-5.7-5.6-10.1c0-2.5,1-4.9,2.8-6.7c0.4-0.4,1-0.4,1.4,0c0.4,0.4,0.4,1,0,1.4c0,0,0,0,0,0c-1.4,1.4-2.2,3.3-2.2,5.2
		c0,3.5,2.5,6,5.1,8.7c1.5,1.4,2.8,2.9,3.9,4.5c1.2,1.8,1.9,3.8,1.9,6c-0.2,2.1-0.7,4.1-1.5,6C263.5,117.4,263.1,117.6,262.7,117.6z
		"/>
	<path class="st0" d="M258.3,117.6c-0.5,0-0.9-0.3-1-0.8c-0.1-0.5-0.3-1-0.5-1.5c-0.8-2.4-1.8-5.3,0.3-9.4c0.3-0.5,0.9-0.7,1.4-0.4
		c0.5,0.3,0.7,0.9,0.4,1.4l0,0c-1.7,3.3-1,5.6-0.2,7.8c0.2,0.6,0.4,1.1,0.5,1.6c0.1,0.5-0.2,1.1-0.7,1.2
		C258.5,117.6,258.4,117.6,258.3,117.6L258.3,117.6z"/>
	<path class="st0" d="M265.9,82.2c-0.6,0-1-0.4-1-1c0-0.4,0.3-0.8,0.6-0.9c3.9-1.5,5.6-3.4,5.6-6c0-1.9-1.5-3.4-3.4-3.4
		c-0.7,0-1.3,0.2-1.9,0.6c-0.5,0.3-1.1,0.2-1.4-0.3c-0.3-0.5-0.2-1.1,0.3-1.4l0,0c2.5-1.7,5.8-1,7.5,1.5c0.6,0.9,0.9,1.9,0.9,3
		c0,1.9-0.8,3.8-2.2,5.1c-1.4,1.2-3,2.2-4.7,2.8C266.2,82.2,266.1,82.2,265.9,82.2z"/>
	<path class="st0" d="M260.9,97.4c-0.6,0-1-0.4-1-1v-9c0-0.6,0.4-1,1-1c0.6,0,1,0.4,1,1v9C261.9,96.9,261.4,97.4,260.9,97.4z"/>
</g>
</svg>
