<svg xmlns="http://www.w3.org/2000/svg" width="43.866" height="97.713" viewBox="0 0 43.866 97.713"><g transform="translate(0)"><path d="M19.431,78.471c-4.585,5.974-10.248,4.223-10.248,4.223A11.671,11.671,0,0,0,2.8,82.283a16.793,16.793,0,0,1,5.843-7.931c6.832-4.326,14.474.721,14.474.721S21.859,75.381,19.431,78.471Z" transform="translate(18.231 2.182)" fill="#ad743f"/><path d="M25.244,62.056a13.723,13.723,0,0,0,1.348,12.361A17.178,17.178,0,0,1,29.828,80.7c3.146-3.811,3.416-9.579,3.416-9.579.27-8.961-7.192-14.421-7.192-14.421S26.592,58.245,25.244,62.056Z" transform="translate(-12.944 1.704)" fill="#ad743f"/><path d="M14.294,63.035c-2.967,6.592-8.451,6.489-8.451,6.489A11.88,11.88,0,0,0,0,70.76,17.847,17.847,0,0,1,3.776,62c5.3-5.562,13.305-2.987,13.305-2.987S15.822,59.635,14.294,63.035Z" transform="translate(26.785 1.756)" fill="#ad743f"/><path d="M11.966,46.832c-1.079,6.8-5.933,8.549-5.933,8.549a11.559,11.559,0,0,0-4.944,2.987,17.185,17.185,0,0,1,1.259-8.961c3.416-6.8,11.147-7.107,11.147-7.107S12.5,43.227,11.966,46.832Z" transform="translate(29.563 1.271)" fill="#ad743f"/><path d="M18.757,49.641a11.7,11.7,0,0,0,2.607,10.507,13.418,13.418,0,0,1,3.506,4.944c2.247-3.605,1.888-8.755,1.888-8.755C25.949,48.508,18.937,44.8,18.937,44.8S19.476,46.139,18.757,49.641Z" transform="translate(-0.737 1.346)" fill="#ad743f"/><path d="M16.514,36.229c.449,6.592,5.214,8.652,5.214,8.652a11.818,11.818,0,0,1,4.675,3.3,16.071,16.071,0,0,0-.539-8.755c-2.787-6.8-10.518-7.622-10.518-7.622S16.244,32.727,16.514,36.229Z" transform="translate(2.144 0.956)" fill="#ad743f"/><path d="M12.507,30.726a10.347,10.347,0,0,1-3.6,9.167,13.158,13.158,0,0,0-3.866,4.12c-1.708-3.5-.809-8.034-.809-8.034,1.708-6.8,8.72-9.579,8.72-9.579S12.327,27.533,12.507,30.726Z" transform="translate(27.313 0.793)" fill="#ad743f"/><path d="M17.486,19.617a10.05,10.05,0,0,1-1.348,8.961,12.461,12.461,0,0,0-2.517,4.532c-2.158-2.781-2.158-7-2.158-7,.09-6.489,5.664-10.507,5.664-10.507S16.677,16.836,17.486,19.617Z" transform="translate(14.877 0.469)" fill="#ad743f"/><path d="M23.3,9.3a10.222,10.222,0,0,1,1.528,8.549,14.585,14.585,0,0,0-.809,5.047c-2.7-1.648-4.045-5.459-4.045-5.459C18.083,11.565,21.589,5.9,21.589,5.9A9.1,9.1,0,0,0,23.3,9.3Z" transform="translate(0.056 0.177)" fill="#ad743f"/><path d="M22.178,24.3c2.068,5.356,6.2,5.974,6.2,5.974a9.589,9.589,0,0,1,4.405,1.648,14.735,14.735,0,0,0-2.607-7C26.313,19.975,20.2,20.9,20.2,20.9S21.1,21.52,22.178,24.3Z" transform="translate(-8.604 0.626)" fill="#ad743f"/><path d="M30.755,2.884a8.484,8.484,0,0,1,1.259,7.21,11.207,11.207,0,0,0-.719,4.223,10.533,10.533,0,0,1-3.416-4.532C26.35,4.841,29.406,0,29.406,0A5.712,5.712,0,0,0,30.755,2.884Z" transform="translate(-14.774)" fill="#ad743f"/><path d="M30.727,15.8a5.9,5.9,0,0,0,6.113,2.06,8.062,8.062,0,0,1,3.776-.412,9.24,9.24,0,0,0-3.686-4.223c-4.225-2.266-8.63.824-8.63.824S29.2,14.151,30.727,15.8Z" transform="translate(-24.614 0.372)" fill="#ad743f"/><path d="M35.688,6.184c2.068,3.914,5.484,3.708,5.484,3.708a8.289,8.289,0,0,1,3.686.618,10.936,10.936,0,0,0-2.607-5.15C38.744,2.064,33.8,3.712,33.8,3.712A7.1,7.1,0,0,1,35.688,6.184Z" transform="translate(-33.8 0.099)" fill="#ad743f"/><g transform="translate(13.522 87.662)"><path d="M24.034,88.808A27.691,27.691,0,0,0,10.1,92.619a17.92,17.92,0,0,1,5.754-6.18c7.012-3.811,14.474,1.751,14.474,1.751s-1.438.1-4.045,3.09c-4.855,5.562-10.428,3.5-10.428,3.5a9.464,9.464,0,0,0-4.225-.927C16.663,89.323,24.034,88.808,24.034,88.808Z" transform="translate(-10.1 -85.104)" fill="#ad743f"/></g><g transform="translate(2.84 71.589)"><path d="M37.415,91.852a13.649,13.649,0,0,0-2.337-4.532,13.853,13.853,0,0,1-.719-12.464c1.528-3.811,1.169-5.356,1.169-5.356s7.1,6.077,6.383,14.936a21.4,21.4,0,0,1-2.517,7.519c.449-6.077-1.708-15.657-1.708-15.657C38.674,84.333,38.044,89.174,37.415,91.852Z" transform="translate(-33.243 -69.5)" fill="#ad743f"/></g></g></svg>