<svg xmlns="http://www.w3.org/2000/svg" width="47.137" height="96.995" viewBox="0 0 47.137 96.995"><path d="M6.992,78.428A12.053,12.053,0,0,0,18.649,82.62a15.132,15.132,0,0,1,7.26-.409c-1.738-4.908-6.646-7.873-6.646-7.873-7.771-4.294-16.462.716-16.462.716S4.231,75.361,6.992,78.428Z" transform="translate(0.063 1.632)" fill="#ad743f"/><path d="M33.5,62.017a12.246,12.246,0,0,1-1.534,12.27,16.264,16.264,0,0,0-3.681,6.237c-3.579-3.783-3.885-9.509-3.885-9.509-.307-8.9,8.18-14.315,8.18-14.315S31.967,58.234,33.5,62.017Z" transform="translate(0.548 1.275)" fill="#ad743f"/><path d="M3.17,63a11.283,11.283,0,0,0,9.611,6.442,15.121,15.121,0,0,1,6.646,1.227c-.511-4.806-4.294-8.691-4.294-8.691C9.1,56.457,0,59.013,0,59.013S1.431,59.626,3.17,63Z" transform="translate(0 1.314)" fill="#ad743f"/><path d="M2.638,46.8a10.828,10.828,0,0,0,6.748,8.487,13.486,13.486,0,0,1,5.624,2.965c.92-4.4-1.431-8.9-1.431-8.9C9.693,42.607.9,42.3.9,42.3S2.025,43.22,2.638,46.8Z" transform="translate(0.02 0.951)" fill="#ad743f"/><path d="M27.6,49.606a10.723,10.723,0,0,1-2.965,10.429,13.375,13.375,0,0,0-3.988,4.908c-2.556-3.579-2.147-8.691-2.147-8.691.92-7.771,8.9-11.452,8.9-11.452S26.783,46.129,27.6,49.606Z" transform="translate(0.415 1.007)" fill="#ad743f"/><path d="M27.058,36.2a10.027,10.027,0,0,1-5.93,8.589,13.45,13.45,0,0,0-5.317,3.272c-1.329-4.192.613-8.691.613-8.691,3.17-6.748,11.963-7.566,11.963-7.566S27.364,32.72,27.058,36.2Z" transform="translate(0.345 0.715)" fill="#ad743f"/><path d="M4.511,30.694a9.833,9.833,0,0,0,4.09,9.1,13.849,13.849,0,0,1,4.4,4.09c1.943-3.476.92-7.975.92-7.975C11.975,29.161,4,26.4,4,26.4S4.716,27.525,4.511,30.694Z" transform="translate(0.09 0.594)" fill="#ad743f"/><path d="M12.012,19.588a9.022,9.022,0,0,0,1.534,8.9,11.927,11.927,0,0,1,2.863,4.5c2.454-2.761,2.454-6.953,2.454-6.953-.1-6.442-6.442-10.429-6.442-10.429S12.932,16.827,12.012,19.588Z" transform="translate(0.258 0.351)" fill="#ad743f"/><path d="M21.547,9.274a9.051,9.051,0,0,0-1.738,8.487,12.779,12.779,0,0,1,.92,5.01c3.067-1.636,4.6-5.419,4.6-5.419C27.477,11.524,23.49,5.9,23.49,5.9A8.551,8.551,0,0,1,21.547,9.274Z" transform="translate(0.436 0.133)" fill="#ad743f"/><path d="M32.265,24.276a9.753,9.753,0,0,1-7.055,5.93,11.834,11.834,0,0,0-5.01,1.636c.2-3.681,2.965-6.953,2.965-6.953,4.4-4.908,11.35-3.988,11.35-3.988S33.492,21.515,32.265,24.276Z" transform="translate(0.454 0.468)" fill="#ad743f"/><path d="M29.239,2.863a7.512,7.512,0,0,0-1.431,7.157,9.835,9.835,0,0,1,.818,4.192,10.605,10.605,0,0,0,3.885-4.5C34.25,4.806,30.773,0,30.773,0S30.773,1.022,29.239,2.863Z" transform="translate(0.617)" fill="#ad743f"/><path d="M39.547,15.774a7.381,7.381,0,0,1-6.953,2.045A10.445,10.445,0,0,0,28.3,17.41a9.821,9.821,0,0,1,4.192-4.192c4.806-2.249,9.816.818,9.816.818S41.286,14.138,39.547,15.774Z" transform="translate(0.636 0.279)" fill="#ad743f"/><path d="M44.229,6.163a7.293,7.293,0,0,1-6.237,3.681,10.629,10.629,0,0,0-4.192.613,10.539,10.539,0,0,1,2.965-5.112c3.988-3.272,9.611-1.636,9.611-1.636A7.36,7.36,0,0,0,44.229,6.163Z" transform="translate(0.76 0.074)" fill="#ad743f"/><g transform="translate(10.327 87.018)"><path d="M17.257,88.781a35,35,0,0,1,15.849,3.783,19.249,19.249,0,0,0-6.544-6.135C18.587,82.646,10.1,88.167,10.1,88.167s1.636.1,4.6,3.067a12.221,12.221,0,0,0,11.861,3.476,12.1,12.1,0,0,1,4.806-.92C25.642,89.292,17.257,88.781,17.257,88.781Z" transform="translate(-10.1 -85.104)" fill="#ad743f"/></g><g transform="translate(33.991 71.063)"><path d="M38.414,91.688a13.012,13.012,0,0,1,2.658-4.5,12.285,12.285,0,0,0,.818-12.372c-1.738-3.783-1.329-5.317-1.329-5.317s-8.078,6.033-7.26,14.826a19.35,19.35,0,0,0,2.863,7.464c-.511-6.033,1.943-15.542,1.943-15.542C36.982,84.224,37.7,89.029,38.414,91.688Z" transform="translate(-33.243 -69.5)" fill="#ad743f"/></g></svg>