<?xml version="1.0" encoding="utf-8"?>
<!-- Generator: Adobe Illustrator 26.0.1, SVG Export Plug-In . SVG Version: 6.00 Build 0)  -->
<svg version="1.1" id="Layer_1" xmlns="http://www.w3.org/2000/svg" xmlns:xlink="http://www.w3.org/1999/xlink" x="0px" y="0px"
	 width="105px" height="70px" viewBox="0 0 105 70" style="enable-background:new 0 0 105 70;" xml:space="preserve">
<style type="text/css">
	.st0{fill:#A57D4C;}
</style>
<g transform="translate(0.547 1)">
	<path class="st0" d="M71.7,28.9h-2V17.8h-5.9c-0.6,0-1-0.4-1-1v-5.9H40.7v5.9c0,0.6-0.4,1-1,1h-5.9v11.1h-2V16.8c0-0.6,0.4-1,1-1
		h5.9V9.9c0-0.6,0.4-1,1-1h24.1c0.6,0,1,0.4,1,1v5.9h5.9c0.6,0,1,0.4,1,1V28.9z"/>
	<path class="st0" d="M59.7,9.9h-2V2.3H45.9v7.6h-2V1.3c0-0.6,0.4-1,1-1h13.8c0.6,0,1,0.4,1,1V9.9z"/>
	<path class="st0" d="M73.4,55.2l-1.8-0.9c0.1-0.1,6.6-12.7,8.3-18.6c-1.5-0.9-5.2-3.1-9.8-5.4c-7.6-3.9-13.9-6.4-18.3-7.2
		c-4.4,0.9-10.7,3.4-18.3,7.2c-4.6,2.3-8.4,4.5-9.8,5.4c1.7,5.9,8.3,18.5,8.3,18.6l-1.8,0.9c-0.3-0.6-7.3-14-8.7-19.8
		c-0.1-0.4,0.1-0.9,0.5-1.1c0,0,4.7-2.8,10.6-5.8c8-4.1,14.4-6.6,19.1-7.4c0.1,0,0.2,0,0.4,0c4.7,0.9,11.1,3.4,19.1,7.4
		c5.9,3,10.5,5.8,10.6,5.8c0.4,0.2,0.6,0.7,0.5,1.1C80.7,41.2,73.7,54.7,73.4,55.2z"/>
	<path class="st0" d="M12.7,58.4l-1.1-1.7l6.5-4.2c1.8-1.2,4.2-1,5.9,0.4l2.4,2c1,0.8,2.5,0.9,3.5,0.2l3.6-2.5
		c1.8-1.2,4.2-1.1,5.8,0.2l2.8,2.2c1,0.8,2.5,0.9,3.5,0.1l3.3-2.4c1.7-1.3,4.1-1.3,5.8,0l3.1,2.3c1.1,0.8,2.5,0.8,3.5,0l3-2.3
		c1.7-1.3,4.1-1.4,5.8-0.1l3.4,2.4c1.1,0.8,2.5,0.7,3.5-0.1l2.6-2.1c1.7-1.4,4.1-1.5,5.9-0.3l6.2,4.2l-1.1,1.7l-6.2-4.2
		c-1.1-0.7-2.5-0.7-3.5,0.2l-2.6,2.1c-1.7,1.4-4.2,1.5-6,0.2l-3.4-2.4c-1-0.7-2.5-0.7-3.5,0.1l-3,2.3c-1.8,1.3-4.2,1.4-5.9,0
		l-3.1-2.3c-1-0.8-2.4-0.8-3.5,0l-3.3,2.4c-1.8,1.3-4.2,1.2-6-0.1l-2.8-2.2c-1-0.8-2.4-0.8-3.5-0.1L31,56.7c-1.8,1.3-4.3,1.1-6-0.3
		l-2.4-2c-1-0.8-2.4-0.9-3.5-0.2L12.7,58.4z"/>
	<path class="st0" d="M12.7,67.7L11.6,66l6.5-4.2c1.8-1.2,4.2-1,5.9,0.4l2.4,2c1,0.8,2.5,0.9,3.5,0.2l3.6-2.5
		c1.8-1.2,4.2-1.2,5.8,0.2l2.8,2.2c1,0.8,2.5,0.9,3.5,0.1l3.3-2.4c1.7-1.3,4.1-1.3,5.8,0l3.1,2.3c1.1,0.8,2.5,0.8,3.5,0l3-2.3
		c1.7-1.3,4.1-1.4,5.8-0.1l3.4,2.4c1.1,0.8,2.5,0.7,3.5-0.1l2.6-2.1c1.7-1.4,4.1-1.5,5.9-0.3L92,66l-1.1,1.7l-6.2-4.2
		c-1.1-0.7-2.5-0.7-3.5,0.2l-2.6,2.1c-1.7,1.4-4.2,1.5-6,0.2l-3.4-2.4c-1-0.7-2.5-0.7-3.5,0.1l-3,2.3c-1.8,1.3-4.2,1.4-5.9,0
		l-3.1-2.3c-1-0.8-2.4-0.8-3.5,0l-3.3,2.4c-1.8,1.3-4.2,1.2-5.9-0.1l-2.8-2.2c-1-0.8-2.4-0.9-3.5-0.1L31,66c-1.8,1.3-4.3,1.1-6-0.3
		l-2.4-2c-1-0.8-2.4-0.9-3.5-0.2L12.7,67.7z"/>
	<path class="st0" d="M53.1,48.3h-2v-26h2V48.3z"/>
	<path class="st0" d="M44.1,35.3h-2v-3h2V35.3z"/>
</g>
</svg>
